<?xml version="1.0" encoding="UTF-8"?>
<svg version="1.1" xmlns="http://www.w3.org/2000/svg" width="1094" height="914">
<path d="M0 0 C19.97971395 -0.43491462 38.83975884 -0.69479874 57.52929688 7.08740234 C58.95960519 7.65812308 60.39063022 8.22705003 61.82226562 8.79443359 C65.46377021 10.24871753 69.07908902 11.75656832 72.68310547 13.30126953 C74.20362984 13.948729 75.73435595 14.57217647 77.26757812 15.18896484 C86.09184652 19.07460908 93.25656339 25.89039803 100.52929688 32.08740234 C101.83060547 33.18955078 101.83060547 33.18955078 103.15820312 34.31396484 C106.7754084 37.43011512 110.15284194 40.71094741 113.52929688 44.08740234 C114.67503439 44.98335822 115.82087525 45.87918195 116.96679688 46.77490234 C119.7443336 49.12925215 121.51813106 51.43977575 123.34179688 54.58740234 C124.09589844 55.85197266 124.09589844 55.85197266 124.86523438 57.14208984 C125.74994801 58.70799144 126.62249853 60.28381036 127.39355469 61.90869141 C129.64209801 66.61709838 131.98762895 71.26338672 136.52929688 74.08740234 C141.27212091 75.09351291 145.96240041 74.6996478 150.76953125 74.39208984 C163.33117032 73.61357638 173.0051768 77.78097799 182.52929688 86.08740234 C183.34140625 86.67779297 184.15351562 87.26818359 184.99023438 87.87646484 C196.19610002 97.63418785 200.65753483 116.18683672 201.69726562 130.38037109 C201.86894669 147.03343432 198.0426581 163.79910334 186.52929688 176.08740234 C185.96210937 176.79251953 185.39492188 177.49763672 184.81054688 178.22412109 C174.54580078 190.93400718 159.63238499 197.14394041 143.70898438 198.86083984 C140.25928957 200.1915575 139.9310861 200.50317047 138.33007812 203.59912109 C137.70077724 205.08323344 137.10152528 206.58036428 136.52929688 208.08740234 C136.22958984 208.83151367 135.92988281 209.575625 135.62109375 210.34228516 C134.67233453 212.72834378 133.75786145 215.12612317 132.84179688 217.52490234 C128.04754525 229.72504693 122.99324989 242.25875126 113.71289062 251.76318359 C110.30234248 255.39337348 107.33495698 259.36191141 104.29736328 263.30493164 C102.1704968 266.05139702 100.08592649 268.72612981 97.52929688 271.08740234 C98.97718845 275.37629197 101.16586917 278.3059927 103.96679688 281.83740234 C108.81790883 288.31304762 112.20278108 295.26618565 115.46679688 302.64990234 C115.92691162 303.67760742 116.38702637 304.7053125 116.86108398 305.76416016 C119.62457874 312.20362917 121.52161128 318.52854141 122.95336914 325.38793945 C123.49379057 328.1664197 123.49379057 328.1664197 124.52929688 331.08740234 C125.23054688 331.35552734 125.93179687 331.62365234 126.65429688 331.89990234 C129.95972965 333.26518979 132.05219531 335.08208914 134.68554688 337.45458984 C136.55944641 339.179881 136.55944641 339.179881 138.95507812 340.76318359 C142.39170989 343.86606053 144.14005569 347.3065641 146.21679688 351.39990234 C146.80170898 352.50108398 146.80170898 352.50108398 147.3984375 353.62451172 C151.67707478 361.86728815 152.89426711 369.05138476 152.84179688 378.27490234 C152.83615723 379.30429932 152.83051758 380.33369629 152.82470703 381.39428711 C152.70769188 388.7112095 152.00371142 395.16470822 149.52929688 402.08740234 C149.1503125 403.31072266 148.77132813 404.53404297 148.38085938 405.79443359 C145.09694854 415.88398779 139.98063141 423.93227745 133.71142578 432.43261719 C132.18153664 434.57420922 130.8349876 436.80353529 129.52929688 439.08740234 C133.60167293 440.51975267 137.59107556 441.59111923 141.82617188 442.41943359 C143.02419434 442.65807129 144.2222168 442.89670898 145.45654297 443.14257812 C146.71805176 443.39249512 147.97956055 443.64241211 149.27929688 443.89990234 C157.87254157 445.63647792 166.44364841 447.40470271 174.90429688 449.71240234 C175.59104492 449.89391846 176.27779297 450.07543457 176.98535156 450.26245117 C181.6728229 451.59339609 185.39145103 453.59059998 189.52929688 456.08740234 C191.01429688 456.76802734 191.01429688 456.76802734 192.52929688 457.46240234 C198.39013881 460.63702506 203.43877764 464.55452972 205.52929688 471.08740234 C206.01183165 475.99317257 206.01183165 475.99317257 204.52929688 479.08740234 C196.85502438 487.06391502 188.16373406 492.03865294 177.52929688 494.58740234 C175.98747423 494.97219457 174.44581305 495.3576342 172.90429688 495.74365234 C172.06817871 495.94893555 171.23206055 496.15421875 170.37060547 496.36572266 C167.04777464 497.20970684 163.74838708 498.12936682 160.44335938 499.04052734 C153.03152868 501.04658677 145.56604237 502.58440386 138.01269531 503.95263672 C135.89583603 504.33894638 133.78310953 504.74404544 131.66992188 505.14990234 C124.46455802 506.49322905 117.62459886 507.20581057 110.27734375 507.03222656 C100.34532387 507.1784379 90.41362414 508.7366925 80.55541992 509.87573242 C55.62223401 512.73566216 30.85933282 513.33270407 5.77929688 513.33740234 C5.05353077 513.33769691 4.32776466 513.33799149 3.58000565 513.33829498 C-20.21058848 513.33984716 -43.80186454 512.73437159 -67.49066162 510.38220215 C-70.8500963 510.04987098 -74.21040776 509.7272784 -77.57080078 509.40478516 C-85.33150695 508.65564296 -93.08905491 507.87736149 -100.84570312 507.08740234 C-102.08933624 506.96202087 -103.33296936 506.8366394 -104.61428833 506.7074585 C-108.17954677 506.34419134 -111.74319324 505.9679836 -115.30664062 505.58740234 C-116.88370537 505.42801682 -116.88370537 505.42801682 -118.49263 505.26541138 C-125.68096167 504.47758102 -132.49418479 502.96582557 -139.47070312 501.08740234 C-141.11932632 500.67922075 -142.76888393 500.2747667 -144.41992188 499.87646484 C-148.60468048 498.85361068 -152.78036454 497.79775533 -156.953125 496.72705078 C-158.57457013 496.31508547 -160.19815932 495.91142435 -161.82421875 495.51806641 C-172.88228875 492.83253512 -184.24142407 489.15906452 -191.32226562 479.58349609 C-192.54644327 476.92278346 -192.79937833 475.53094596 -192.47070312 472.64990234 C-192.37789063 471.56902344 -192.37789063 471.56902344 -192.28320312 470.46630859 C-189.68869068 462.86987552 -182.85150472 459.46739767 -176.08398438 456.09912109 C-168.17749461 452.4736469 -159.73659282 450.27181891 -151.38525391 447.92089844 C-148.55657315 447.11195924 -145.74531036 446.2603527 -142.93554688 445.38818359 C-134.51889628 442.77839351 -126.23604632 440.25343424 -117.47070312 439.08740234 C-117.88320313 438.44416016 -118.29570312 437.80091797 -118.72070312 437.13818359 C-119.952601 435.2105934 -121.17863486 433.27924928 -122.40039062 431.34521484 C-123.76179015 429.2029371 -125.14158457 427.07221948 -126.54101562 424.95458984 C-132.37533235 415.92581834 -136.79321527 406.64087803 -138.22070312 395.89990234 C-138.57256764 393.79071993 -138.57256764 393.79071993 -139.47070312 392.08740234 C-142.83582255 390.51436276 -142.83582255 390.51436276 -145.50976562 389.94677734 C-168.44322117 383.2906293 -187.30962121 365.51698267 -198.72070312 345.02490234 C-210.45628398 322.98112023 -213.06757772 296.09048821 -206.47070312 272.08740234 C-202.8165486 260.17459089 -197.17918124 250.51018583 -188.47070312 241.64990234 C-187.984646 241.15353271 -187.49858887 240.65716309 -186.99780273 240.14575195 C-178.89390055 232.23637584 -168.60688356 229.09978238 -157.47070312 228.08740234 C-156.78234375 228.02294922 -156.09398437 227.95849609 -155.38476562 227.89208984 C-146.25464311 227.43710035 -134.29688324 229.13380481 -127.03320312 235.08740234 C-125.27148438 236.91162109 -125.27148438 236.91162109 -123.47070312 239.08740234 C-122.70113281 240.00134766 -121.9315625 240.91529297 -121.13867188 241.85693359 C-112.44118564 252.80255844 -108.47498028 262.70621746 -110.03320312 276.64990234 C-111.2415681 283.67814762 -113.98682367 288.21953301 -119.45898438 292.72412109 C-124.10209163 295.87061514 -130.00840153 297.08054809 -135.47070312 296.08740234 C-138.4153223 293.84774496 -140.14513931 291.54141213 -141.47070312 288.08740234 C-141.40937202 283.5182351 -140.52042267 279.18684144 -138.47070312 275.08740234 C-138.51467659 269.5907192 -139.38293902 264.7190485 -142.47070312 260.08740234 C-146.29861309 256.91570552 -150.56140677 255.9549573 -155.47070312 256.08740234 C-162.83076094 257.41272744 -169.25242328 261.12515651 -173.97460938 266.93896484 C-183.00362786 280.46901642 -182.54107529 296.21337032 -179.51367188 311.58740234 C-176.58889763 325.0209923 -171.33388933 335.46478165 -161.47070312 345.08740234 C-160.38471195 346.39770404 -159.30161828 347.71041012 -158.22070312 349.02490234 C-152.79265817 355.27895413 -146.13875503 359.15070161 -138.47070312 362.08740234 C-138.22578125 361.40291016 -137.98085938 360.71841797 -137.72851562 360.01318359 C-132.49229977 347.83329018 -123.56355906 335.99189538 -111.47070312 330.08740234 C-110.81070313 330.08740234 -110.15070313 330.08740234 -109.47070312 330.08740234 C-109.37273437 329.56275391 -109.27476562 329.03810547 -109.17382812 328.49755859 C-104.81796925 305.92970357 -98.33280364 290.53448254 -84.47070312 272.08740234 C-86.04137692 268.30550064 -88.43121255 265.9270011 -91.28320312 263.02490234 C-104.80105618 248.80844043 -113.95223652 232.13758655 -120.68896484 213.89208984 C-121.38650823 212.01038919 -122.10027805 210.13472878 -122.81445312 208.25927734 C-123.22888672 207.14649414 -123.64332031 206.03371094 -124.0703125 204.88720703 C-125.5478739 201.9331146 -126.63659916 200.71867598 -129.47070312 199.08740234 C-132.10158044 198.4792348 -132.10158044 198.4792348 -134.97070312 198.21240234 C-147.4674625 196.35539303 -158.95844322 190.47271455 -167.47070312 181.08740234 C-168.06367188 180.46349609 -168.65664063 179.83958984 -169.26757812 179.19677734 C-182.19632331 165.26580385 -188.14462565 151.64202821 -187.87573242 132.74267578 C-187.20946863 114.96284075 -181.81832033 97.85688991 -168.78320312 85.33740234 C-159.12144979 77.01231263 -147.84741705 73.6998017 -135.28320312 73.89990234 C-134.11241211 73.90086914 -134.11241211 73.90086914 -132.91796875 73.90185547 C-128.97678551 73.93194084 -125.31735043 74.12381334 -121.47070312 75.08740234 C-121.23609375 74.43384766 -121.00148438 73.78029297 -120.75976562 73.10693359 C-116.6249158 63.42136114 -111.01284204 53.68306209 -103.12695312 46.64208984 C-101.23203306 45.00069278 -101.23203306 45.00069278 -99.59570312 42.02490234 C-96.94472287 38.36031199 -93.90114197 36.41449194 -90.16210938 33.92724609 C-87.57613628 32.15947639 -85.19274017 30.27413425 -82.78320312 28.27490234 C-78.6044957 24.89496837 -74.2914617 21.78889188 -69.84570312 18.77490234 C-69.23637939 18.35426514 -68.62705566 17.93362793 -67.99926758 17.50024414 C-63.7097134 14.63612409 -59.36274102 12.71791343 -54.47070312 11.08740234 C-53.48215332 10.74394775 -52.49360352 10.40049316 -51.47509766 10.04663086 C-34.17368162 4.1146089 -18.34217288 0.46190897 0 0 Z M-74.47070312 53.08740234 C-75.36144531 53.88533203 -76.2521875 54.68326172 -77.16992188 55.50537109 C-94.74197953 72.07474357 -110.79113566 97.75299977 -111.80664062 122.47021484 C-112.10163186 141.01458251 -108.27368253 154.8275302 -99.47070312 171.08740234 C-98.97570312 170.09740234 -98.97570312 170.09740234 -98.47070312 169.08740234 C-99.55382068 166.41388433 -100.85528669 163.88094175 -102.14648438 161.30224609 C-109.96654588 142.31725902 -105.97044084 117.76540483 -98.72070312 99.14990234 C-87.56751056 73.34940927 -67.19008818 54.01433635 -41.47070312 43.08740234 C-29.48579352 38.4023111 -17.1450413 35.25586913 -4.47070312 33.08740234 C-3.45959473 32.90870605 -2.44848633 32.73000977 -1.40673828 32.54589844 C3.65157901 31.9566713 8.62533069 31.96384549 13.71289062 31.98974609 C15.29614891 31.99186852 15.29614891 31.99186852 16.91139221 31.99403381 C20.26322331 31.99960512 23.61498617 32.01215233 26.96679688 32.02490234 C29.24739486 32.02992105 31.52799391 32.03448331 33.80859375 32.03857422 C39.38218451 32.04956515 44.95573582 32.06627458 50.52929688 32.08740234 C18.41152197 6.87903364 -48.11278101 28.9424392 -74.47070312 53.08740234 Z M-67.47070312 98.08740234 C-68.50195312 98.70615234 -69.53320312 99.32490234 -70.59570312 99.96240234 C-79.86579263 106.81420763 -85.14935535 114.81872383 -87.47070312 126.08740234 C-87.84195313 127.34552734 -88.21320313 128.60365234 -88.59570312 129.89990234 C-89.84265175 134.9668682 -89.77819454 139.902954 -89.47070312 145.08740234 C-89.42558594 145.92916016 -89.38046875 146.77091797 -89.33398438 147.63818359 C-88.0482533 158.6420379 -80.95265431 172.90858173 -72.21679688 179.88818359 C-71.07404297 180.63648438 -71.07404297 180.63648438 -69.90820312 181.39990234 C-69.14378906 181.91166016 -68.379375 182.42341797 -67.59179688 182.95068359 C-65.43108011 184.32358061 -65.43108011 184.32358061 -62.47070312 184.08740234 C-60.38962204 187.5150653 -60.38962204 187.5150653 -60.73632812 189.96240234 C-61.58878308 192.4290805 -62.77251733 194.21096867 -64.28320312 196.33740234 C-72.96475489 209.0578535 -75.23417658 221.88737237 -73.04101562 237.06005859 C-71.34802218 243.65437255 -67.61800321 248.78064202 -63.47070312 254.08740234 C-62.83519531 254.93044922 -62.1996875 255.77349609 -61.54492188 256.64208984 C-47.61943784 273.0589505 -22.38901674 280.07245703 -1.77929688 281.81396484 C7.05828386 282.43324633 15.77245257 282.47737763 24.52929688 281.08740234 C25.45613281 280.99974609 26.38296875 280.91208984 27.33789062 280.82177734 C45.77962801 278.74510679 66.25115427 267.77717617 77.92773438 253.36083984 C78.86741889 251.9831069 79.70544749 250.53737726 80.52929688 249.08740234 C81.04492188 248.26240234 81.56054688 247.43740234 82.09179688 246.58740234 C82.56617188 245.76240234 83.04054688 244.93740234 83.52929688 244.08740234 C84.06554687 243.26240234 84.60179687 242.43740234 85.15429688 241.58740234 C89.60076968 230.26910792 87.54511199 217.70299202 83.15429688 206.71240234 C81.28670969 202.48691748 79.18816964 198.84649833 76.52929688 195.08740234 C75.31003343 192.64887545 74.48967455 190.9760744 74.61132812 188.24755859 C76.01295046 184.94927284 78.75793767 183.27056765 81.52929688 181.14990234 C92.72590948 172.10760978 100.16750478 160.47483308 102.52929688 146.08740234 C103.73899833 130.38111456 99.52976027 116.96495699 89.40429688 104.96240234 C82.17655558 97.25520889 73.88714663 92.24034329 63.52929688 90.08740234 C62.81386719 89.93400391 62.0984375 89.78060547 61.36132812 89.62255859 C46.80317935 87.2624944 32.9017677 93.38782685 21.01757812 101.24755859 C17.00111371 104.21734626 12.79691686 107.55216238 10.52929688 112.08740234 C7.82226562 112.37255859 7.82226562 112.37255859 4.52929688 112.08740234 C2.14257812 110.14599609 2.14257812 110.14599609 -0.15820312 107.52490234 C-7.3863257 99.85180525 -15.73261321 94.96426456 -25.47070312 91.08740234 C-26.23640625 90.73033203 -27.00210938 90.37326172 -27.79101562 90.00537109 C-41.06466226 85.4582764 -56.22881106 90.98967008 -67.47070312 98.08740234 Z M-157.86132812 107.56787109 C-163.58821769 116.53351131 -165.87069888 126.57447127 -164.47070312 137.08740234 C-162.77014829 144.49567048 -159.9601378 150.96419786 -155.47070312 157.08740234 C-154.88482422 157.91884766 -154.88482422 157.91884766 -154.28710938 158.76708984 C-151.17600558 162.86762665 -148.18616222 165.18467324 -143.47070312 167.08740234 C-140.06813258 166.13701582 -140.06813258 166.13701582 -137.47070312 164.08740234 C-134.63953634 158.42506877 -136.73626345 150.81938111 -137.84570312 144.83740234 C-137.97170898 144.15210449 -138.09771484 143.46680664 -138.22753906 142.76074219 C-138.96107352 139.0116677 -139.91485142 135.57792182 -141.47070312 132.08740234 C-144.44070313 134.56240234 -144.44070313 134.56240234 -147.47070312 137.08740234 C-147.07994472 130.73243666 -146.5352015 125.1334333 -144.47070312 119.08740234 C-144.79938324 115.63626109 -145.90034543 113.13801524 -147.47070312 110.08740234 C-146.32730469 109.70068359 -145.18390625 109.31396484 -144.00585938 108.91552734 C-142.51467607 108.39033071 -141.02380652 107.86424263 -139.53320312 107.33740234 C-138.77845703 107.08474609 -138.02371094 106.83208984 -137.24609375 106.57177734 C-134.79244579 105.73150461 -134.79244579 105.73150461 -131.47070312 104.08740234 C-130.69547046 102.0468249 -130.69547046 102.0468249 -130.47070312 100.08740234 C-140.52872509 94.32018791 -151.14663222 99.26690528 -157.86132812 107.56787109 Z M144.52929688 99.08740234 C145.08311441 102.96412508 146.41582304 104.73331237 149.52929688 107.08740234 C152.02886388 107.95247711 154.52324369 108.64841673 157.09179688 109.27880859 C159.71526414 110.14909341 161.42026184 111.32499112 163.52929688 113.08740234 C161.54929687 114.40740234 159.56929687 115.72740234 157.52929688 117.08740234 C157.80644531 117.90982422 158.08359375 118.73224609 158.36914062 119.57958984 C160.59891825 126.45143121 162.20302268 132.86042889 162.52929688 140.08740234 C161.74554687 139.28302734 160.96179688 138.47865234 160.15429688 137.64990234 C157.80946831 135.10049818 157.80946831 135.10049818 155.52929688 134.08740234 C151.98251526 141.65386978 152.39351128 149.91323948 152.46679688 158.08740234 C152.47130859 159.05291016 152.47582031 160.01841797 152.48046875 161.01318359 C152.49214271 163.37132323 152.50851667 165.72932836 152.52929688 168.08740234 C160.7134637 166.0786518 165.88374711 162.33716846 170.36523438 155.13818359 C176.46972959 143.27164045 178.99945695 130.569959 175.58398438 117.45849609 C174.4121915 114.51427438 173.12129363 111.82475232 171.52929688 109.08740234 C171.16835938 108.46478516 170.80742188 107.84216797 170.43554688 107.20068359 C167.10800413 102.48270335 161.87389875 99.87664857 156.52929688 98.08740234 C152.42561095 97.58374215 148.29773348 97.20318404 144.52929688 99.08740234 Z M-68.92382812 289.48583984 C-81.99146871 303.86024448 -86.87968106 325.58828134 -86.84570312 344.64990234 C-86.8440918 345.62733398 -86.84248047 346.60476563 -86.84082031 347.61181641 C-86.64736867 359.60961124 -84.66704966 371.31618224 -82.47070312 383.08740234 C-82.1985498 384.5540332 -82.1985498 384.5540332 -81.92089844 386.05029297 C-81.41334673 388.73319838 -80.88716525 391.41115072 -80.34570312 394.08740234 C-80.10835449 395.27124512 -80.10835449 395.27124512 -79.86621094 396.47900391 C-79.01448124 400.70651046 -79.01448124 400.70651046 -76.47070312 404.08740234 C-76.25296274 396.01185499 -76.95753072 388.27781949 -77.97070312 380.27490234 C-81.00428496 354.02437802 -81.43162706 329.12839376 -71.33984375 304.4777832 C-69.11768743 299.04730964 -67.59222646 293.85191606 -66.47070312 288.08740234 C-67.68673558 287.97183262 -67.68673558 287.97183262 -68.92382812 289.48583984 Z M6.39257812 307.04443359 C5.34005859 307.66253906 4.28753906 308.28064453 3.203125 308.91748047 C1.53926758 309.8987793 1.53926758 309.8987793 -0.15820312 310.89990234 C-2.32772301 312.17903382 -4.49826563 313.45643251 -6.66992188 314.73193359 C-7.63760498 315.30274658 -8.60528809 315.87355957 -9.60229492 316.46166992 C-14.96074439 319.49868712 -18.48071926 321.45626839 -24.72070312 321.08740234 C-37.69014336 320.80769818 -49.28360956 326.24017455 -58.61914062 335.13037109 C-62.71807065 339.46278447 -63.66494213 342.99065552 -63.97070312 348.83740234 C-63.69166912 358.24317352 -59.17480696 365.33199605 -52.81445312 372.04833984 C-44.3675839 379.39711607 -34.20092514 381.41630219 -23.47070312 383.08740234 C-23.14070313 384.40740234 -22.81070313 385.72740234 -22.47070312 387.08740234 C-26.18669503 387.28826677 -27.24278758 387.23934604 -30.47070312 385.08740234 C-33.44070313 387.06740234 -36.41070312 389.04740234 -39.47070312 391.08740234 C-37.85671054 397.24991949 -35.02510777 401.30525957 -29.78320312 404.96240234 C-23.10201846 407.23148393 -17.49515728 406.89197751 -11.09570312 403.89990234 C-6.20908545 401.17320032 -3.61859534 398.43784831 -1.15820312 393.39990234 C0.28387367 386.45171413 -0.83701679 379.94344558 -4.31445312 373.77099609 C-8.86293073 367.14804391 -16.51993733 365.40691721 -23.97070312 363.89990234 C-25.46945983 363.62227121 -26.96905783 363.34895941 -28.47070312 363.08740234 C-28.96570313 359.62240234 -28.96570313 359.62240234 -29.47070312 356.08740234 C-26.60462184 354.6543617 -24.6576953 354.78096079 -21.47070312 355.08740234 C-18.09570312 357.08740234 -18.09570312 357.08740234 -15.47070312 359.08740234 C-13.49070312 357.76740234 -11.51070312 356.44740234 -9.47070312 355.08740234 C-7.08529018 360.54962468 -4.70087794 366.01228233 -2.31738281 371.4753418 C-1.506784 373.33288308 -0.6959142 375.19030614 0.11523438 377.04760742 C1.28261828 379.72071627 2.44901978 382.39425193 3.61523438 385.06787109 C3.97676605 385.89514206 4.33829773 386.72241302 4.71078491 387.57475281 C6.37446754 391.3912844 8.01587393 395.20797204 9.52929688 399.08740234 C22.89206584 393.06175056 35.72635264 386.21860834 48.52929688 379.08740234 C48.52929688 374.82240075 46.08456274 372.58707855 43.52929688 369.39990234 C43.05234375 368.79339844 42.57539062 368.18689453 42.08398438 367.56201172 C40.90553293 366.06537838 39.71824499 364.57571062 38.52929688 363.08740234 C42.8502589 363.93759163 46.29258021 366.07547874 50.09179688 368.22412109 C52.45083265 369.30821076 52.45083265 369.30821076 54.63867188 368.58349609 C57.19824564 366.55804826 58.29774599 364.35816089 59.77929688 361.46240234 C60.30007813 360.45951172 60.82085938 359.45662109 61.35742188 358.42333984 C61.74414062 357.65248047 62.13085938 356.88162109 62.52929688 356.08740234 C59.26115368 354.91310161 55.98937172 353.74928978 52.71679688 352.58740234 C51.78802734 352.25353516 50.85925781 351.91966797 49.90234375 351.57568359 C49.00966797 351.25986328 48.11699219 350.94404297 47.19726562 350.61865234 C46.37508545 350.32539063 45.55290527 350.03212891 44.70581055 349.72998047 C42.42799034 348.94582709 42.42799034 348.94582709 39.52929688 349.08740234 C39.8928125 348.14888428 39.8928125 348.14888428 40.26367188 347.19140625 C41.35566751 344.36639254 42.44254119 341.53943571 43.52929688 338.71240234 C43.91085937 337.72755859 44.29242187 336.74271484 44.68554688 335.72802734 C45.04648437 334.78701172 45.40742187 333.84599609 45.77929688 332.87646484 C46.11445312 332.00715332 46.44960938 331.1378418 46.79492188 330.2421875 C47.63682719 328.15130448 47.63682719 328.15130448 47.52929688 326.08740234 C45.82231406 325.74722071 44.11362554 325.41559345 42.40429688 325.08740234 C41.45296875 324.90177734 40.50164062 324.71615234 39.52148438 324.52490234 C36.47970892 324.08015188 33.59872294 324.01453763 30.52929688 324.08740234 C30.39652344 325.07482422 30.26375 326.06224609 30.12695312 327.07958984 C29.95035156 328.36091797 29.77375 329.64224609 29.59179688 330.96240234 C29.41777344 332.23857422 29.24375 333.51474609 29.06445312 334.82958984 C28.52929688 338.08740234 28.52929688 338.08740234 27.52929688 340.08740234 C22.57929687 328.20740234 17.62929688 316.32740234 12.52929688 304.08740234 C10.39942419 304.08740234 8.14078468 306.01331235 6.39257812 307.04443359 Z M-109.47070312 362.08740234 C-110.8042558 363.73651585 -110.8042558 363.73651585 -112.03320312 365.83740234 C-112.46761719 366.53349609 -112.90203125 367.22958984 -113.34960938 367.94677734 C-117.76143303 376.37074725 -116.22205903 388.68462088 -113.65820312 397.46240234 C-112.20792667 402.093412 -112.20792667 402.093412 -108.47070312 405.08740234 C-107.35273616 390.7534688 -107.36297394 376.4584752 -107.47070312 362.08740234 C-108.13070312 362.08740234 -108.79070312 362.08740234 -109.47070312 362.08740234 Z M68.52929688 366.08740234 C66.61595833 371.28971522 64.71439582 376.49614607 62.82250977 381.70629883 C62.18068357 383.46912393 61.53594008 385.23089028 60.88793945 386.99145508 C57.40335608 396.46508151 54.13001519 405.93966463 51.50976562 415.69287109 C51.29105301 416.49388748 51.07234039 417.29490387 50.84700012 418.12019348 C49.65831489 422.60478523 49.65831489 422.60478523 50.52929688 427.08740234 C52.01429688 426.59240234 52.01429688 426.59240234 53.52929688 426.08740234 C54.60938839 423.6332401 55.48567108 421.2891418 56.30664062 418.74755859 C56.55926163 417.99260605 56.81188263 417.2376535 57.07215881 416.45982361 C57.6081826 414.84842324 58.13823348 413.23502591 58.6628418 411.61987305 C59.44604644 409.21365336 60.2504877 406.81543382 61.05859375 404.41748047 C63.70826777 396.44808341 66.05697917 388.46547222 67.90820312 380.27099609 C68.07569565 379.53655777 68.24318817 378.80211945 68.41575623 378.04542542 C69.28501411 373.99479115 69.69785489 370.22743098 69.52929688 366.08740234 C69.19929688 366.08740234 68.86929687 366.08740234 68.52929688 366.08740234 Z M-85.55273438 460.94677734 C-88.53622119 464.20638822 -90.84845467 466.90857408 -91.65820312 471.33740234 C-91.80222931 475.06637969 -91.80222931 475.06637969 -89.78320312 477.52490234 C-86.24005958 479.91891825 -84.68098469 480.26029971 -80.40820312 479.64990234 C-74.72275073 477.89957748 -70.09826494 473.6856873 -65.47070312 470.08740234 C-64.76494141 471.35197266 -64.76494141 471.35197266 -64.04492188 472.64208984 C-63.42230469 473.73779297 -62.7996875 474.83349609 -62.15820312 475.96240234 C-61.23587891 477.59822266 -61.23587891 477.59822266 -60.29492188 479.26708984 C-58.61012667 482.2814508 -58.61012667 482.2814508 -55.47070312 484.08740234 C-49.94524354 485.02465979 -45.11161517 484.16615719 -40.25976562 481.41162109 C-34.61568352 477.23401447 -32.66110894 471.79696242 -31.47070312 465.08740234 C-31.30058299 462.25316743 -31.30058299 462.25316743 -31.47070312 460.08740234 C-26.9954763 462.32501576 -25.13118037 464.91932133 -22.47070312 469.08740234 C-19.03549832 471.37753888 -17.48537213 471.26583208 -13.47070312 471.08740234 C-11.96800472 465.62304451 -12.79637919 461.93232482 -15.47070312 457.08740234 C-17.07056175 455.00511212 -18.76965894 453.0978415 -20.56835938 451.18505859 C-23.24009434 448.23901819 -25.49919486 445.0185071 -27.79492188 441.77490234 C-28.62443359 440.93958984 -28.62443359 440.93958984 -29.47070312 440.08740234 C-46.69047569 440.08740234 -72.52231594 449.30985581 -85.55273438 460.94677734 Z M36.66601562 447.17333984 C34.20792371 450.52569189 31.78759708 453.88844799 29.46679688 457.33740234 C29.06025879 457.92730957 28.6537207 458.5172168 28.23486328 459.125 C26.45623837 461.87972804 25.49350421 463.56439111 25.72070312 466.88427734 C26.48278042 469.08741688 26.48278042 469.08741688 27.52929688 471.08740234 C30.96683526 471.01865158 33.58629735 470.93262542 36.22460938 468.56787109 C37.23559584 467.36129177 38.21946611 466.13128003 39.16992188 464.87646484 C40.50528017 463.11901054 41.93813239 461.61304829 43.52929688 460.08740234 C43.63886719 460.73966797 43.7484375 461.39193359 43.86132812 462.06396484 C45.49682206 471.07912651 47.96898832 476.68950463 55.52929688 482.08740234 C59.77946202 484.59653598 63.69510903 484.78663309 68.52929688 484.08740234 C71.71641788 482.25650304 73.10950794 480.86701036 74.84179688 477.64990234 C75.5504316 475.00862745 75.68481079 472.80889592 75.52929688 470.08740234 C80.74658798 471.8559756 84.27803055 473.52553056 88.52929688 477.08740234 C92.5878541 479.2234851 95.97805873 479.34024891 100.52929688 479.08740234 C101.51929688 478.75740234 102.50929688 478.42740234 103.52929688 478.08740234 C103.88003513 473.15758129 104.11544659 469.28224599 101.90429688 464.77490234 C96.83712315 459.04099523 91.57200329 455.78410901 84.65429688 452.71240234 C83.79876221 452.33027588 82.94322754 451.94814941 82.06176758 451.55444336 C75.09092575 448.54980247 67.99411893 446.17108046 60.71679688 444.02490234 C59.70955566 443.72600098 58.70231445 443.42709961 57.66455078 443.11914062 C48.33903581 440.49658447 43.08088637 439.23351947 36.66601562 447.17333984 Z " fill="#70578E" transform="translate(541.470703125,130.91259765625)"/>
<path d="M0 0 C5.31481881 4.45220424 10.32988513 9.11660241 15.25 14 C15.95640625 14.68578125 16.6628125 15.3715625 17.390625 16.078125 C23.80612755 22.44502526 26.74446565 27.8539975 27.12584114 37.02667713 C27.12621817 38.10220183 27.12659519 39.17772654 27.12698364 40.2858429 C27.13121338 42.14982727 27.13121338 42.14982727 27.13552856 44.0514679 C27.13358434 45.41622939 27.13153618 46.78099075 27.12939453 48.14575195 C27.13075083 49.59374027 27.13253205 51.04172825 27.13470459 52.48971558 C27.13925942 56.41860814 27.13749531 60.3474744 27.1343255 64.27636743 C27.13178266 68.41399723 27.13414564 72.55162487 27.13571167 76.68925476 C27.13753162 83.65734253 27.13513565 90.6254197 27.13037109 97.59350586 C27.12496939 105.58429017 27.12666174 113.57504879 27.1321975 121.56583244 C27.13678254 128.46650162 27.13735199 135.36716319 27.13475883 142.26783341 C27.13322008 146.37041179 27.13293386 150.47297825 27.13629532 154.5755558 C27.14675059 169.55960192 27.1287016 184.53910721 26.61669922 199.51635742 C26.58635653 200.5485632 26.55601383 201.58076899 26.52475166 202.64425373 C26.48668341 203.57937385 26.44861515 204.51449396 26.40939331 205.47795105 C26.37881773 206.285172 26.34824215 207.09239294 26.31674004 207.92407513 C26 210 26 210 24 213 C22.1184082 213.58422852 22.1184082 213.58422852 19.80078125 213.87890625 C18.93146973 213.99451904 18.0621582 214.11013184 17.16650391 214.22924805 C16.22468262 214.33922119 15.28286133 214.44919434 14.3125 214.5625 C12.86496338 214.74582886 12.86496338 214.74582886 11.38818359 214.93286133 C0.62149447 216.25291185 -10.18627566 217.16552446 -21 218 C-21.08979126 218.90165894 -21.08979126 218.90165894 -21.18139648 219.8215332 C-21.30623413 221.01782349 -21.30623413 221.01782349 -21.43359375 222.23828125 C-21.51407959 223.02501221 -21.59456543 223.81174316 -21.67749023 224.62231445 C-21.98430734 226.88430669 -22.46290576 228.98740365 -23.0625 231.1875 C-24.38663342 236.08230089 -24.38663342 236.08230089 -24 241 C-15.82917292 251.31399484 -0.33561058 259.64982995 11 266 C9.60446016 269.67245134 7.96048571 273.08745311 6.09375 276.54296875 C5.51898926 277.60918457 4.94422852 278.67540039 4.35205078 279.77392578 C3.74087402 280.90040527 3.12969727 282.02688477 2.5 283.1875 C1.87722168 284.33976074 1.25444336 285.49202148 0.61279297 286.67919922 C-4.52058216 296.15913947 -9.72743354 305.59685152 -15 315 C-20.55230971 314.36905571 -20.55230971 314.36905571 -22.72216797 312.58032227 C-25.81910762 310.43171666 -29.07002141 309.80584374 -32.6953125 309.02734375 C-33.81654007 308.7744735 -33.81654007 308.7744735 -34.9604187 308.51649475 C-37.34663769 307.98081706 -39.73567119 307.45911064 -42.125 306.9375 C-43.70853205 306.58357022 -45.29186781 306.22876098 -46.875 305.87304688 C-54.56500591 304.15300125 -62.26404268 302.50205207 -70 301 C-68.56766408 296.83182668 -66.48395962 293.8603122 -63.8125 290.375 C-51.87320557 273.97148977 -46.93379577 250.99952199 -49.875 231.0625 C-52.52720502 217.27240364 -59.85916032 205.21008473 -71.31616211 197.21044922 C-79.36514464 191.46642646 -79.36514464 191.46642646 -81.109375 187.4375 C-81.4375 184.875 -81.4375 184.875 -81.5859375 182.06640625 C-82.01670085 178.87631921 -83.09564267 176.62953136 -84.56396484 173.79345703 C-89.83391082 163.33860577 -89.81117388 152.75945994 -89.82446289 141.30786133 C-89.82593826 140.63620941 -89.82741364 139.9645575 -89.82893372 139.27255249 C-89.83195735 137.32875757 -89.83251349 135.38495931 -89.83300781 133.44116211 C-89.98301932 130.34991621 -90.45072034 127.91133426 -91.34765625 124.97265625 C-92.0108546 122.47274969 -92.21564492 121.47282776 -91.13305664 119.09912109 C-89.74598882 117.2189576 -88.27162873 115.59393009 -86.625 113.9375 C-85.82449219 113.06834961 -85.82449219 113.06834961 -85.0078125 112.18164062 C-83.69630791 110.76474728 -82.35129205 109.37899994 -81 108 C-77.13746696 110.7896072 -73.77452198 113.50706412 -72 118 C-71.38206723 122.63899484 -71.39503192 127.25484428 -71.390625 131.9296875 C-71.37563043 133.28876708 -71.3589006 134.64782852 -71.34051514 136.00686646 C-71.2969715 139.56767653 -71.27687186 143.12824086 -71.26177979 146.68927002 C-71.24216137 150.32945204 -71.20019691 153.96937047 -71.16015625 157.609375 C-71.08499556 164.73948265 -71.03461884 171.86957082 -71 179 C-67.48575476 180.05955248 -64.14344126 180.19998141 -60.484375 180.31640625 C-59.23398437 180.35830078 -57.98359375 180.40019531 -56.6953125 180.44335938 C-55.39335938 180.48267578 -54.09140625 180.52199219 -52.75 180.5625 C-51.43257812 180.60568359 -50.11515625 180.64886719 -48.7578125 180.69335938 C-45.50531212 180.79941917 -42.25273608 180.90148024 -39 181 C-38.97637217 173.53017633 -38.95883734 166.06035671 -38.94818783 158.59050369 C-38.94306539 155.11842743 -38.93617349 151.6463775 -38.92456055 148.17431641 C-38.87767117 133.71007106 -38.92196507 119.2558474 -39.37890625 104.796875 C-39.40951645 103.6949884 -39.44012665 102.59310181 -39.47166443 101.45782471 C-39.97690855 87.58899591 -40.85243327 76.92206525 -51 67 C-51 66.34 -51 65.68 -51 65 C-48.93950145 64.18243762 -46.87651147 63.37115266 -44.8125 62.5625 C-43.66394531 62.11003906 -42.51539063 61.65757812 -41.33203125 61.19140625 C-39.68267578 60.60166016 -39.68267578 60.60166016 -38 60 C-37.13117187 59.68804687 -36.26234375 59.37609375 -35.3671875 59.0546875 C-33 59 -33 59 -30.61328125 60.87890625 C-29.85402344 61.76449219 -29.09476563 62.65007812 -28.3125 63.5625 C-27.54550781 64.43003906 -26.77851562 65.29757812 -25.98828125 66.19140625 C-8.85763862 90.38970105 -20.31133395 152.28508532 -21 181 C-11.43 181 -1.86 181 8 181 C7.98226383 162.65801359 7.94384078 144.31644846 7.86790943 125.97461891 C7.83330928 117.45749698 7.80791046 108.94053605 7.80444336 100.42333984 C7.80139652 92.99661544 7.78080971 85.57017816 7.73947543 78.14356458 C7.71820866 74.21396707 7.70551197 70.28477709 7.71384621 66.35512161 C7.72142687 62.64978383 7.70540312 58.94526903 7.67193985 55.24008179 C7.65987684 53.24532143 7.67224326 51.25045916 7.68556213 49.25570679 C7.57749058 40.71207397 6.27267776 33.49863527 0.20960712 27.11492348 C-0.33393823 26.60262373 -0.87748358 26.09032398 -1.4375 25.5625 C-3.43936618 23.37631878 -3.99919195 22.51472768 -4.00390625 19.51171875 C-3.47685085 16.6231283 -2.76256226 13.83507058 -2 11 C-1.60705083 8.9408443 -1.23126723 6.87831822 -0.875 4.8125 C-0.58333333 3.20833333 -0.29166667 1.60416667 0 0 Z " fill="#CFAB39" transform="translate(748,267)"/>
<path d="M0 0 C11.69319216 8.76061381 19.3444389 20.34248791 21.875 34.875 C22.94854641 46.58728386 22.63225982 57.99902771 17.875 68.875 C17.524375 69.67808594 17.17375 70.48117187 16.8125 71.30859375 C10.93250456 83.08900127 0.78847679 91.83381241 -11.3125 96.8125 C-21.64078271 99.77933166 -33.65817589 98.90040825 -43.125 93.875 C-47.24429914 91.24551405 -50.67114143 88.32885857 -54.125 84.875 C-54.455 99.725 -54.785 114.575 -55.125 129.875 C-63.375 129.875 -71.625 129.875 -80.125 129.875 C-80.125 85.985 -80.125 42.095 -80.125 -3.125 C-71.875 -3.125 -63.625 -3.125 -55.125 -3.125 C-54.795 -0.155 -54.465 2.815 -54.125 5.875 C-53.30708984 5.07835937 -53.30708984 5.07835937 -52.47265625 4.265625 C-37.39921326 -9.85445493 -17.33103639 -11.24390858 0 0 Z M-47.4375 23.921875 C-52.64455757 29.948562 -54.70173401 37.38838055 -55.4375 45.1875 C-54.6068141 54.98959362 -51.76712428 62.68318611 -44.4609375 69.40625 C-39.05264043 73.65386231 -33.46342691 75.21999498 -26.625 74.75 C-19.05171087 73.59188534 -13.51905482 70.27943427 -8.66796875 64.3515625 C-3.26566435 55.68052203 -2.01280688 46.23024353 -4.25 36.4375 C-6.47549503 28.8562576 -10.6505686 23.193528 -17.26171875 18.83984375 C-27.7622379 13.402468 -39.15577884 15.97409421 -47.4375 23.921875 Z " fill="#71578E" transform="translate(400.125,783.125)"/>
<path d="M0 0 C8.34260325 6.17877962 15.62557518 14.77704949 17.35546875 25.3046875 C17.35546875 28.2746875 17.35546875 31.2446875 17.35546875 34.3046875 C8.44546875 34.3046875 -0.46453125 34.3046875 -9.64453125 34.3046875 C-10.63453125 30.6746875 -11.62453125 27.0446875 -12.64453125 23.3046875 C-16.93352988 19.01568887 -17.84190334 18.40303713 -23.64453125 18.3046875 C-28.26132948 19.53583369 -30.08733058 20.41664893 -32.64453125 24.4921875 C-34.034056 29.78975062 -33.79353411 33.64472484 -31.578125 38.7734375 C-28.88962167 42.29293277 -25.75383158 43.74688666 -21.83203125 45.6796875 C-21.07664063 46.06761475 -20.32125 46.45554199 -19.54296875 46.85522461 C-15.9652079 48.68356563 -12.36161993 50.44882548 -8.7265625 52.16015625 C2.83354137 57.66916976 10.63183632 63.67397288 16.35546875 75.3046875 C16.69578125 75.97757813 17.03609375 76.65046875 17.38671875 77.34375 C21.59339882 87.43199201 20.51048783 100.74217356 16.61328125 110.73046875 C14.65606384 114.7360783 12.33081283 117.99798259 9.35546875 121.3046875 C8.76894531 121.99433594 8.18242188 122.68398438 7.578125 123.39453125 C0.9243615 130.70142491 -7.68838944 134.88775757 -17.55078125 135.578125 C-30.46884344 135.98282796 -40.43627916 133.84473862 -50.61328125 125.30859375 C-57.00009751 119.00775386 -61.81056402 111.14418171 -63.64453125 102.3046875 C-63.64453125 99.0046875 -63.64453125 95.7046875 -63.64453125 92.3046875 C-54.73453125 92.3046875 -45.82453125 92.3046875 -36.64453125 92.3046875 C-35.65453125 96.5946875 -34.66453125 100.8846875 -33.64453125 105.3046875 C-29.64022444 109.48653029 -29.64022444 109.48653029 -24.64453125 111.3046875 C-19.6860205 111.22598098 -17.48602616 110.83451763 -13.26953125 108.1796875 C-9.84334425 104.42719698 -8.68635969 101.38804137 -8.6171875 96.2890625 C-8.98344617 91.36804863 -10.35927945 88.09536266 -13.64453125 84.3046875 C-18.84489325 80.47969037 -24.52337582 77.94132231 -30.45703125 75.4921875 C-41.02610622 70.9384211 -50.74116539 65.56358549 -56.64453125 55.3046875 C-57.12921875 54.46679688 -57.61390625 53.62890625 -58.11328125 52.765625 C-63.16511829 42.57775363 -63.57122937 30.13797078 -60.14453125 19.3046875 C-55.35271698 8.38069133 -46.582854 -0.04559684 -35.58203125 -4.6328125 C-23.72024376 -8.00383559 -10.34161576 -6.62963255 0 0 Z " fill="#71578E" transform="translate(63.64453125,745.6953125)"/>
<path d="M0 0 C12.02632392 8.33880997 19.3635989 20.1617445 22.2421875 34.5546875 C22.2421875 40.4946875 22.2421875 46.4346875 22.2421875 52.5546875 C-2.8378125 52.5546875 -27.9178125 52.5546875 -53.7578125 52.5546875 C-48.71638363 64.04776969 -48.71638363 64.04776969 -38.921875 70.796875 C-32.35263516 73.09729473 -26.94542559 72.71917675 -20.3125 70.83203125 C-17.78712531 69.75746806 -17.78712531 69.75746806 -16.4206543 68.10742188 C-13.59065475 65.06257117 -11.67175384 63.69064853 -7.48046875 63.06713867 C-3.58285247 62.96487699 0.28587877 63.02997995 4.1796875 63.1796875 C5.54486302 63.20982669 6.91010267 63.23719556 8.27539062 63.26171875 C11.59930315 63.33219039 14.91991256 63.43068643 18.2421875 63.5546875 C17.5592141 67.38219253 16.6595737 69.8481676 14.4296875 73.0546875 C13.92824219 73.786875 13.42679687 74.5190625 12.91015625 75.2734375 C4.84748843 86.30059911 -6.29815909 93.62915051 -19.7578125 96.5546875 C-37.56554058 98.05592039 -51.47100487 94.954844 -65.421875 83.3359375 C-75.018976 74.40570455 -81.44152219 63.09407618 -82.09375 49.85546875 C-82.39648034 33.12545911 -79.04466099 18.91812172 -67.5 6.20703125 C-48.86141456 -11.47037153 -21.40820994 -13.74776421 0 0 Z M-48.90625 23.4921875 C-52.02944874 26.97119369 -53.7578125 29.85866955 -53.7578125 34.5546875 C-37.9178125 34.5546875 -22.0778125 34.5546875 -5.7578125 34.5546875 C-7.03635185 26.88345137 -10.44805807 22.64757009 -16.75 18.125 C-28.35192246 11.74161294 -39.65202394 14.59766634 -48.90625 23.4921875 Z " fill="#71578E" transform="translate(280.7578125,784.4453125)"/>
<path d="M0 0 C8.25 0 16.5 0 25 0 C25.33 26.4 25.66 52.8 26 80 C30.95 72.74 35.9 65.48 41 58 C47.875 48 47.875 48 50.77416992 43.80078125 C52.16651205 41.82647877 52.16651205 41.82647877 53.67993164 38.82958984 C56 36 56 36 59.39160156 35.31884766 C60.72498682 35.3197913 62.05862273 35.35334102 63.390625 35.4140625 C64.44754547 35.42679703 64.44754547 35.42679703 65.52581787 35.43978882 C67.76879081 35.47328692 70.00812099 35.54853952 72.25 35.625 C73.77338543 35.65510515 75.29682744 35.68248003 76.8203125 35.70703125 C80.54805187 35.77305981 84.27367025 35.87654871 88 36 C85.49158274 40.56282235 82.86671165 44.65637095 79.625 48.75 C74.64257585 55.10566843 69.85068609 61.59193937 65.08642578 68.11230469 C64.52810059 68.87446289 63.96977539 69.63662109 63.39453125 70.421875 C62.84619629 71.17404297 62.29786133 71.92621094 61.73291016 72.70117188 C60.52032336 74.30975419 59.2659664 75.88730507 57.98193359 77.43945312 C57.3317627 78.22771484 56.6815918 79.01597656 56.01171875 79.828125 C55.41190186 80.53356445 54.81208496 81.23900391 54.1940918 81.96582031 C52.78270343 83.91528545 52.78270343 83.91528545 53.20239258 86.1237793 C54.33076119 88.77805317 56.01792453 90.47375032 58 92.5625 C61.29963279 96.11795875 64.4566226 99.72256855 67.5 103.5 C70.4081338 107.0947765 73.38541332 110.58260628 76.5 114 C81.9909363 120.0313448 87.47002493 126.20503739 92 133 C87.44710125 133.2240449 82.89746549 133.38647538 78.34033203 133.49438477 C76.79386469 133.53939461 75.24777504 133.60063085 73.70263672 133.67895508 C60.92741897 134.30988094 60.92741897 134.30988094 56.33911133 131.19165039 C54.2877396 128.90312587 52.63828044 126.59636544 51 124 C50.08029309 122.83912206 49.14798444 121.68803323 48.19921875 120.55078125 C47.35897642 119.4736899 46.52175182 118.39423788 45.6875 117.3125 C44.75401166 116.1131992 43.82041445 114.91398312 42.88671875 113.71484375 C42.41540527 113.10753418 41.9440918 112.50022461 41.45849609 111.87451172 C38.52849334 108.10876663 35.56887912 104.36619515 32.6159668 100.6184082 C30.37536773 97.76929281 28.17513678 94.90018237 26 92 C25.67 105.53 25.34 119.06 25 133 C16.75 133 8.5 133 0 133 C0 89.11 0 45.22 0 0 Z " fill="#71578E" transform="translate(100,744)"/>
<path d="M0 0 C0.83265381 0.00523682 1.66530762 0.01047363 2.52319336 0.01586914 C3.42231445 0.0190918 4.32143555 0.02231445 5.24780273 0.02563477 C6.66609375 0.03820312 6.66609375 0.03820312 8.11303711 0.05102539 C9.06243164 0.05553711 10.01182617 0.06004883 10.98999023 0.06469727 C13.34356776 0.07652429 15.69702188 0.09300514 18.05053711 0.11352539 C17.26943213 36.99057097 17.26943213 36.99057097 15.05053711 52.11352539 C15.60402832 51.78143066 16.15751953 51.44933594 16.7277832 51.10717773 C21.05151367 48.51293945 25.37524414 45.91870117 29.69897461 43.32446289 C30.57779297 42.79175781 31.45661133 42.25905273 32.36206055 41.71020508 C34.16940174 40.63682954 35.99645465 39.59603533 37.84057617 38.5871582 C44.60932239 34.8453487 44.60932239 34.8453487 48.05053711 28.11352539 C49.05508285 23.88464009 49.88782018 19.63761908 50.67553711 15.36352539 C51.1028117 13.0974441 51.5323814 10.83179396 51.96459961 8.56665039 C52.14974121 7.56794922 52.33488281 6.56924805 52.52563477 5.5402832 C53.05053711 3.11352539 53.05053711 3.11352539 54.05053711 1.11352539 C60.78831025 0.5119385 64.7919456 1.7860062 70.05053711 6.11352539 C73.07744789 12.16734695 70.6077413 20.05161118 68.80053711 26.17602539 C68.59557617 26.9269043 68.39061523 27.6777832 68.17944336 28.45141602 C66.19703272 35.40186785 63.66526789 42.08798152 58.42553711 47.23852539 C57.83514648 47.83922852 57.24475586 48.43993164 56.63647461 49.05883789 C48.97925201 55.14297548 40.04543674 59.17696705 31.23803711 63.30102539 C29.04296378 64.33392579 26.84891347 65.36900371 24.65600586 66.40649414 C23.21970825 67.07974731 23.21970825 67.07974731 21.75439453 67.76660156 C19.09536431 69.09119477 16.57542795 70.5504158 14.05053711 72.11352539 C14.65439282 75.98000448 16.47738075 78.25340312 18.86303711 81.30102539 C23.38439179 87.15740736 27.65590282 93.16913787 31.88769531 99.23730469 C37.9267206 108.46395291 37.9267206 108.46395291 47.05053711 114.11352539 C49.94995246 114.19091192 52.17943294 113.75704874 55.05053711 113.11352539 C56.2928123 112.09598631 56.2928123 112.09598631 56.14819336 109.96899414 C56.1365918 109.08856445 56.12499023 108.20813477 56.11303711 107.30102539 C56.10401367 106.42833008 56.09499023 105.55563477 56.08569336 104.65649414 C56.0740918 103.81731445 56.06249023 102.97813477 56.05053711 102.11352539 C56.05053711 100.79352539 56.05053711 99.47352539 56.05053711 98.11352539 C60.01702751 94.6588402 64.91483873 93.86095006 70.05053711 94.11352539 C74.49707808 96.08976582 75.66164634 99.15234197 77.36303711 103.48852539 C79.81263023 111.01727486 79.81263023 111.01727486 79.05053711 115.11352539 C77.81797505 117.475936 76.7368944 119.10916929 75.05053711 121.11352539 C74.53749023 121.73227539 74.02444336 122.35102539 73.49584961 122.98852539 C67.2288158 129.87419344 56.91294153 137.29951646 47.44897461 138.42211914 C41.06313539 138.6943836 36.39922678 138.345473 31.25366211 134.37524414 C26.29333793 129.28299644 22.71824176 123.16085594 19.05053711 117.11352539 C18.31722168 115.90841309 18.31722168 115.90841309 17.5690918 114.67895508 C17.06539062 113.85041016 16.56168945 113.02186523 16.04272461 112.16821289 C15.54369629 111.34804688 15.04466797 110.52788086 14.53051758 109.68286133 C13.55601577 108.07337402 12.58868613 106.45951876 11.62915039 104.84106445 C11.19070801 104.10855469 10.75226562 103.37604492 10.30053711 102.62133789 C9.91381836 101.96794434 9.52709961 101.31455078 9.12866211 100.64135742 C8.11441797 98.94840316 8.11441797 98.94840316 6.05053711 98.11352539 C6.11112305 98.93852539 6.17170898 99.76352539 6.23413086 100.61352539 C8.43069833 130.89236308 8.43069833 130.89236308 8.05053711 144.11352539 C5.21938247 143.58657614 2.7022636 142.98558818 -0.01196289 141.98852539 C-2.77484792 140.87291625 -2.77484792 140.87291625 -4.83618164 141.67993164 C-7.69801808 142.26711065 -9.10189178 141.43661137 -11.69946289 140.17602539 C-12.49868164 139.79575195 -13.29790039 139.41547852 -14.12133789 139.02368164 C-14.72461914 138.72333008 -15.32790039 138.42297852 -15.94946289 138.11352539 C-15.53696289 136.99977539 -15.12446289 135.88602539 -14.69946289 134.73852539 C-5.48412504 106.4839518 -5.14970534 75.79498936 -4.50390625 46.32110596 C-4.23740098 34.29102227 -3.94308235 22.26168517 -3.44946289 10.23852539 C-3.41401367 9.30105469 -3.37856445 8.36358398 -3.34204102 7.39770508 C-3.02380977 0.17608911 -3.02380977 0.17608911 0 0 Z " fill="#D0AB39" transform="translate(559.949462890625,732.886474609375)"/>
<path d="M0 0 C5.96190701 2.55883773 10.38514048 2.97587549 16.49462891 0.61767578 C18.44591835 -0.27906021 20.32991342 -1.25542044 22.22021484 -2.27416992 C22.90680176 -2.62954834 23.59338867 -2.98492676 24.30078125 -3.35107422 C26.40446631 -4.44018009 28.50016606 -5.54356006 30.59521484 -6.64916992 C41.9587834 -12.59755659 51.25599407 -16.85644881 64.22021484 -17.02416992 C65.42037231 -17.0453186 65.42037231 -17.0453186 66.64477539 -17.06689453 C73.51261226 -17.01087397 79.14735662 -15.77774229 84.47021484 -11.14916992 C88.4543481 -6.46195432 89.63815826 -2.73854641 89.59521484 3.35083008 C88.37938572 13.97952987 84.3989156 22.95400175 79.59521484 32.35083008 C78.93521484 32.35083008 78.27521484 32.35083008 77.59521484 32.35083008 C77.08732422 31.28864258 76.57943359 30.22645508 76.05615234 29.13208008 C70.27208907 16.07673724 70.27208907 16.07673724 60.34521484 6.35083008 C52.45945281 4.2479602 44.95729716 4.72200227 37.59521484 8.35083008 C31.85019785 11.93622389 27.23441881 16.66461323 22.53271484 21.47583008 C18.21011645 25.8945468 14.20236244 29.64738392 8.59521484 32.35083008 C0.59957204 31.57917667 -6.68360352 23.19851842 -11.84228516 17.72583008 C-19.16174002 10.15398022 -28.02685646 5.28302314 -38.65478516 5.10083008 C-44.49558492 5.19415844 -49.62621919 5.60743583 -53.94775391 9.87426758 C-55.58881383 11.95968957 -56.9983726 14.09918436 -58.40478516 16.35083008 C-58.74606445 16.89255859 -59.08734375 17.43428711 -59.43896484 17.99243164 C-61.80336656 21.75350887 -64.11744111 25.5424603 -66.40478516 29.35083008 C-67.39478516 29.02083008 -68.38478516 28.69083008 -69.40478516 28.35083008 C-70.59294288 25.59619575 -71.59584641 22.94019159 -72.52978516 20.10083008 C-72.79404297 19.33641602 -73.05830078 18.57200195 -73.33056641 17.78442383 C-76.08595892 9.68608745 -78.40322576 0.5525126 -75.68603516 -7.87963867 C-73.6645317 -11.70256256 -71.31187342 -13.8909802 -67.40478516 -15.64916992 C-46.658895 -21.97087894 -18.55587384 -8.38499436 0 0 Z " fill="#70578E" transform="translate(542.40478515625,259.649169921875)"/>
<path d="M0 0 C6.14310242 3.71516415 9.95530456 9.16003926 11.859375 16.03125 C13.34061676 24.0779958 12.70503357 31.42371538 8.00390625 38.26171875 C4.2988463 42.85837067 4.2988463 42.85837067 1.60935116 44.27105713 C-1.41728077 45.9643688 -3.36900731 47.22626984 -4.36593437 50.64875793 C-4.61980555 53.50868286 -4.6596031 56.30078575 -4.62475586 59.171875 C-4.63950675 60.23358414 -4.65425764 61.29529327 -4.66945553 62.38917542 C-4.69699933 64.61781684 -4.70952252 66.84668955 -4.70777512 69.07550049 C-4.70707402 72.19633656 -4.74797825 75.31291317 -4.80789185 78.43310547 C-4.9209079 84.56329708 -4.97454551 90.69323078 -5.0234375 96.82421875 C-5.04409067 99.05436513 -5.06508873 101.28450835 -5.08641052 103.51464844 C-5.14077039 109.29454933 -5.19054725 115.07448026 -5.23925781 120.85443115 C-5.29011481 126.78839691 -5.34546054 132.72232079 -5.40039062 138.65625 C-5.50691383 150.23303687 -5.60857909 161.80986061 -5.70703125 173.38671875 C-9.87280359 171.83118406 -12.5447699 170.03760764 -15.83203125 167.01171875 C-16.68023438 166.24085938 -17.5284375 165.47 -18.40234375 164.67578125 C-23.51168209 159.60108249 -23.51168209 159.60108249 -24.05941486 156.19616985 C-24.04357743 154.99857147 -24.04357743 154.99857147 -24.02742004 153.77677917 C-24.02287308 152.85583969 -24.01832611 151.93490021 -24.01364136 150.98605347 C-23.99342926 149.98285065 -23.97321716 148.97964783 -23.95239258 147.94604492 C-23.9431929 146.8838121 -23.93399323 145.82157928 -23.92451477 144.72715759 C-23.90305187 142.4201042 -23.87488282 140.11310575 -23.84082985 137.80620384 C-23.78868993 134.1535873 -23.75777229 130.50136392 -23.733078 126.84846497 C-23.65969152 116.46264407 -23.55308721 106.07735215 -23.41918945 95.69213867 C-23.33877649 89.3398368 -23.28768935 82.98784205 -23.25458336 76.63512611 C-23.23597079 74.21534191 -23.20597506 71.79561731 -23.16434669 69.37611961 C-23.10659672 65.98887739 -23.08599851 62.60324492 -23.07348633 59.21557617 C-23.04720154 58.21844604 -23.02091675 57.22131592 -22.99383545 56.19396973 C-23.01889868 50.24030822 -23.93147171 47.0272908 -28.15435314 42.74478626 C-29.53113155 41.54057142 -30.95974696 40.39619935 -32.39453125 39.26171875 C-36.07245453 36.2796188 -37.78353631 32.96296599 -38.70703125 28.38671875 C-39.35233076 20.506619 -39.01077519 13.02113733 -34.30078125 6.4140625 C-25.38331556 -3.49189585 -11.93183502 -5.40631634 0 0 Z M-21.70703125 14.38671875 C-24.16083261 18.06742079 -24.52355506 21.11246657 -23.70703125 25.38671875 C-21.42793387 28.44722095 -19.7778995 29.98514316 -16.20703125 31.32421875 C-13.09288145 31.4020725 -11.42594953 30.92046752 -8.70703125 29.38671875 C-6.02003526 26.77234427 -4.85211127 25.14435886 -4.14453125 21.44921875 C-4.92354543 17.20791933 -6.58018739 15.30963801 -9.70703125 12.38671875 C-14.60645126 10.61458811 -17.39366336 11.64184827 -21.70703125 14.38671875 Z " fill="#CFAB39" transform="translate(671.70703125,3.61328125)"/>
<path d="M0 0 C7.14732774 3.89754431 11.3702104 9.15946913 13.875 16.9375 C15.58156583 24.88824467 14.76355896 31.15438619 10.546875 38.13671875 C8.17787365 41.50942857 6.62182945 43.58939957 2.80529785 45.36830139 C-0.48116274 48.24977297 -0.57196974 48.63564543 -0.84411621 52.75071716 C-0.86098852 54.79008713 -0.84464765 56.82988746 -0.80273438 58.86889648 C-0.80372635 59.98310974 -0.80471832 61.097323 -0.80574036 62.24530029 C-0.80410761 64.6652869 -0.78868991 67.0852942 -0.76118469 69.50512505 C-0.71846625 73.33402645 -0.71285721 77.16137529 -0.71716309 80.99049377 C-0.71988124 89.80974073 -0.66729976 98.62830017 -0.61200714 107.44732666 C-0.55796775 116.1710391 -0.52738032 124.89399383 -0.53718567 133.61793709 C-0.53131385 137.39255041 -0.48958741 141.1657006 -0.44665527 144.94004822 C-0.4450971 147.25226796 -0.44521031 149.56448963 -0.44726562 151.87670898 C-0.42561844 152.92778336 -0.40397125 153.97885773 -0.38166809 155.06178284 C-0.43927899 162.04558869 -0.43927899 162.04558869 -2.43678284 164.64372444 C-4.04382324 165.97743225 -4.04382324 165.97743225 -7.125 167.9375 C-9.00588665 170.24214372 -10.70028751 172.61701562 -12.4140625 175.046875 C-14.3550464 177.19170652 -15.37022572 177.38185556 -18.125 177.9375 C-18.13530746 177.02709457 -18.14561493 176.11668915 -18.15623474 175.17869568 C-18.19720617 171.57512617 -18.23846775 167.97156019 -18.27992249 164.36799622 C-18.2990912 162.69864498 -18.31817438 161.02929275 -18.33717346 159.35993958 C-18.45181306 149.30494919 -18.57548684 139.25017927 -18.71899414 129.19555664 C-18.77134751 125.48454262 -18.82326566 121.77352269 -18.875 118.0625 C-18.88794538 117.14349348 -18.90089077 116.22448696 -18.91422844 115.27763176 C-19.05469724 105.14540649 -19.15149377 95.0188474 -19.08482361 84.88560486 C-19.05706721 80.5206414 -19.06178407 76.1560671 -19.07131958 71.79104614 C-19.06548793 69.86291042 -19.04207935 67.93473954 -19.00021362 66.00704956 C-18.44623236 55.99729615 -18.44623236 55.99729615 -22.31689453 47.18408203 C-24.91637082 45.03337942 -24.91637082 45.03337942 -27.68188477 43.51000977 C-33.25343714 39.92388317 -34.789402 33.09559279 -36.125 26.9375 C-37.01569125 20.58773337 -36.45626422 16.00142985 -32.66015625 10.74609375 C-24.3679494 0.97690349 -12.42661639 -5.5743838 0 0 Z M-19.125 17.9375 C-21.76760627 21.57108362 -22.24440078 23.15476156 -21.5625 27.625 C-20.07938124 31.0426215 -19.38522727 32.26081169 -16.125 33.9375 C-12.78854485 35.16672032 -11.40330865 35.03212494 -8 33.875 C-4.49478714 31.51279133 -3.36688281 29.97361915 -2.125 25.9375 C-2.70160498 22.15753405 -3.25906692 19.83329284 -5.9375 17.0625 C-11.1743056 14.36928569 -14.16469427 14.59468527 -19.125 17.9375 Z " fill="#CFAB39" transform="translate(446.125,2.0625)"/>
<path d="M0 0 C8.25 0 16.5 0 25 0 C25 9.57 25 19.14 25 29 C29.29 29 33.58 29 38 29 C38 36.26 38 43.52 38 51 C33.71 51 29.42 51 25 51 C25 75.75 25 100.5 25 126 C16.75 126 8.5 126 0 126 C0 101.25 0 76.5 0 51 C-4.29 51 -8.58 51 -13 51 C-13 43.74 -13 36.48 -13 29 C-8.71 29 -4.42 29 0 29 C0 19.43 0 9.86 0 0 Z " fill="#71588E" transform="translate(443,751)"/>
<path d="M0 0 C3.96332484 1.41589632 7.36838141 3.61681435 10.94702148 5.8046875 C15.11521681 8.27152341 18.9662525 9.6691469 23.67578125 10.93359375 C27.92830844 12.46080122 29.25104024 13.2048898 31.2890625 17.3046875 C32.17980063 20.0546971 32.85321996 22.83983187 33.515625 25.65234375 C35.71849715 34.99403652 40.98932715 43.54209615 46.546875 51.26171875 C47.61328125 52.93359375 47.61328125 52.93359375 47.61328125 54.93359375 C42.95275552 56.54067159 38.24333427 57.89157956 33.48828125 59.18359375 C26.61439215 61.07622703 19.76105206 63.03078402 12.92578125 65.05859375 C11.68900635 65.42065918 11.68900635 65.42065918 10.42724609 65.79003906 C6.75591699 66.88745946 3.21973298 68.04934384 -0.28125 69.61328125 C-3.38671875 70.93359375 -3.38671875 70.93359375 -6.38671875 70.93359375 C-6.77303467 70.26118652 -7.15935059 69.5887793 -7.55737305 68.89599609 C-16.39955704 53.51453856 -25.32015831 38.18432231 -34.38671875 22.93359375 C-32.27340936 20.69373153 -30.11953212 18.97803912 -27.54296875 17.296875 C-26.79619873 16.80533936 -26.04942871 16.31380371 -25.2800293 15.80737305 C-24.49023682 15.29215088 -23.70044434 14.77692871 -22.88671875 14.24609375 C-16.58773684 10.11991167 -10.51231588 5.89482429 -4.6484375 1.1640625 C-2.38671875 -0.06640625 -2.38671875 -0.06640625 0 0 Z " fill="#CFAB39" transform="translate(368.38671875,512.06640625)"/>
<path d="M0 0 C0.19916016 1.50240234 0.19916016 1.50240234 0.40234375 3.03515625 C0.58071127 4.37760654 0.7590977 5.72005433 0.9375 7.0625 C1.02451172 7.71927734 1.11152344 8.37605469 1.20117188 9.05273438 C1.28818359 9.70693359 1.37519531 10.36113281 1.46484375 11.03515625 C1.54694092 11.69531738 1.62903809 12.35547852 1.71362305 13.03564453 C1.99045462 14.93452501 2.407222 16.81136955 2.828125 18.68359375 C3 22 3 22 1.26953125 24.625 C0.45871094 25.40875 -0.35210937 26.1925 -1.1875 27 C-8.08858979 34.09427737 -10.8523345 39.42472473 -11.07987976 49.55690002 C-11.05956192 50.81373093 -11.03924408 52.07056183 -11.01831055 53.36547852 C-10.99865311 54.81580072 -10.97901598 56.2661232 -10.95939636 57.71644592 C-10.94716726 58.47552813 -10.93493816 59.23461033 -10.92233849 60.01669502 C-10.86092157 64.0897101 -10.83091188 68.16302349 -10.79492188 72.23632812 C-10.74720534 77.3952925 -10.69065675 82.55371463 -10.60229492 87.7121582 C-10.53134294 91.90240653 -10.49091031 96.09203664 -10.46967506 100.28281975 C-10.4562367 101.86509165 -10.4320709 103.44731577 -10.39618492 105.02923775 C-10.18093509 114.79061628 -11.15624279 122.11447576 -15.52986145 130.91734314 C-24.54848298 149.82802032 -23.56796332 176.38290076 -16.81787109 195.80957031 C-14.90739417 200.92622673 -12.76979526 205.92991243 -10.453125 210.875 C-9 214 -9 214 -8 217 C-11.31320331 216.69467865 -14.62539955 216.37954424 -17.9375 216.0625 C-18.88302734 215.97548828 -19.82855469 215.88847656 -20.80273438 215.79882812 C-22.15141602 215.66831055 -22.15141602 215.66831055 -23.52734375 215.53515625 C-24.77632446 215.41732788 -24.77632446 215.41732788 -26.05053711 215.29711914 C-28 215 -28 215 -29 214 C-29.25098757 211.22823925 -29.42477526 208.48490713 -29.54980469 205.70605469 C-29.61275789 204.32636568 -29.61275789 204.32636568 -29.67698288 202.91880417 C-30.26206846 188.3764407 -30.18430728 173.81403732 -30.20018864 159.2623148 C-30.20315234 156.67929696 -30.20726204 154.09628323 -30.21169281 151.51326752 C-30.22528336 143.4012318 -30.23499852 135.28920583 -30.2388947 127.17715955 C-30.24339605 117.86353339 -30.26107484 108.55005246 -30.2898953 99.23647046 C-30.31152975 91.99095276 -30.32159944 84.74547598 -30.32293582 77.49992633 C-30.32397984 73.19011197 -30.32980526 68.88043576 -30.34775543 64.57065582 C-30.36427353 60.52877595 -30.36637368 56.48713788 -30.35761642 52.44523621 C-30.35684885 50.96866455 -30.36115167 49.49207959 -30.37107468 48.01554108 C-30.43937369 37.21575193 -30.07269373 28.54830754 -22.43359375 20.44921875 C-21.63050781 19.64097656 -20.82742188 18.83273437 -20 18 C-19.43039551 17.41814941 -18.86079102 16.83629883 -18.27392578 16.23681641 C-15.01008582 12.90348024 -11.73090749 9.58538948 -8.42578125 6.29296875 C-7.86286377 5.7311792 -7.29994629 5.16938965 -6.7199707 4.59057617 C-1.75594781 0 -1.75594781 0 0 0 Z " fill="#CFAB39" transform="translate(349,265)"/>
<path d="M0 0 C1.02802734 -0.00773438 2.05605469 -0.01546875 3.11523438 -0.0234375 C4.12263672 -0.02085937 5.13003906 -0.01828125 6.16796875 -0.015625 C7.06153076 -0.01336914 7.95509277 -0.01111328 8.87573242 -0.00878906 C9.84486572 0.07661133 10.81399902 0.16201172 11.8125 0.25 C12.46498215 0.25632446 13.11746429 0.26264893 13.78971863 0.26916504 C16.27045243 0.51526865 17.713452 0.88216749 19.8125 2.25 C22.04583525 6.22496315 23.06876895 10.48301565 24.21484375 14.875 C24.5822038 16.17839918 24.95283973 17.480879 25.32655334 18.7824707 C26.30806954 22.23022569 27.24940512 25.68766766 28.18133545 29.14910889 C29.65304542 34.58623768 31.1873666 40.00633357 32.71300125 45.42852783 C33.08912338 46.76746454 33.46389818 48.10678047 33.83732224 49.44647217 C39.46111649 70.96843956 39.46111649 70.96843956 47.92784119 91.37207031 C48.8125 93.25 48.8125 93.25 48.8125 96.25 C46.3747037 96.30397335 43.93810315 96.34365616 41.5 96.375 C40.80970703 96.39175781 40.11941406 96.40851563 39.40820312 96.42578125 C35.64114604 96.46217794 34.02818296 96.39378864 30.8125 94.25 C30.08203125 91.6484375 30.08203125 91.6484375 29.625 88.625 C29.38716797 87.12066406 29.38716797 87.12066406 29.14453125 85.5859375 C28.98017578 84.42964844 28.98017578 84.42964844 28.8125 83.25 C28.27359131 83.51216309 27.73468262 83.77432617 27.17944336 84.04443359 C24.70572955 85.24376176 22.22793627 86.43442192 19.75 87.625 C18.90244141 88.0375 18.05488281 88.45 17.18164062 88.875 C6.07059817 94.19457245 -5.05095079 96.20615861 -17.234375 93.59765625 C-27.24939067 89.97421114 -32.56793892 83.53899737 -37.05859375 74.1171875 C-40.27649731 65.94438054 -40.56615435 55.19489805 -38.57421875 46.60546875 C-35.38473548 39.4818211 -28.98885812 34.76626483 -21.9375 31.875 C-20.36614647 31.29950428 -18.78300168 30.75469951 -17.1875 30.25 C-16.59710937 30.05921875 -16.00671875 29.8684375 -15.3984375 29.671875 C-6.37508627 27.9501048 3.65754925 27.95237511 11.65234375 32.73828125 C15.11199235 35.15940965 18.53445996 37.5854479 21.8125 40.25 C20.20111432 34.40262319 18.30111489 28.97049882 15.7109375 23.48828125 C14.75773483 21.1135633 14.30618197 18.89293998 13.875 16.375 C13.24856275 13.32775438 13.05104133 12.48131281 10.75 10.25 C3.26730563 7.70269979 -3.06649447 8.25675118 -10.5703125 10.33984375 C-11.42881805 10.56321915 -12.28732361 10.78659454 -13.17184448 11.01673889 C-15.88951237 11.72567759 -18.60111101 12.45494675 -21.3125 13.1875 C-24.0315698 13.91395245 -26.75165261 14.63568292 -29.47457886 15.34754944 C-31.16099841 15.78920431 -32.8452007 16.23944664 -34.52664185 16.69969177 C-39.16033608 17.92193353 -43.35383203 18.74347363 -48.1875 18.25 C-50.89198323 15.12944243 -52.1875 13.41725696 -52.1875 9.25 C-48.25988233 8.28553838 -44.33121793 7.32546714 -40.40161133 6.36914062 C-39.06994957 6.04444681 -37.73855999 5.7186343 -36.4074707 5.39160156 C-24.11259127 2.37229407 -12.69411824 -0.09659443 0 0 Z M-22.5546875 43.3046875 C-26.33248788 47.80551187 -27.47393308 52.16840929 -27.25 58 C-25.77294696 68.22937798 -19.79832721 77.44333567 -12.1875 84.25 C-8.34094854 87.07878687 -5.34302517 88.19023146 -0.5625 88.4375 C8.65374387 86.63432185 19.99546419 80.61713418 25.8125 73.25 C28.24528045 66.49227653 26.44185925 57.44952007 23.87890625 50.84375 C19.3838106 42.75568862 12.01418772 39.40640628 3.4375 36.875 C-6.60321411 34.18435112 -14.95316986 35.94937286 -22.5546875 43.3046875 Z " fill="#D0AB39" transform="translate(794.1875,776.75)"/>
<path d="M0 0 C5.53836394 2.90350796 9.39861824 7.55039142 12.4375 12.9375 C14.51439268 21.45276001 14.54928353 28.80274222 10.375 36.6875 C6.54443996 41.34628924 2.48579256 44.86126251 -2.9375 47.5 C-2.94780746 48.07612534 -2.95811493 48.65225067 -2.96873474 49.24583435 C-3.0782909 55.33104483 -3.19273528 61.41615043 -3.30981445 67.5012207 C-3.35269369 69.76161469 -3.39439349 72.02203142 -3.43481445 74.2824707 C-3.66984687 87.37754849 -4.01557952 100.43361532 -4.9375 113.5 C-7.60677083 112.49088542 -10.27604167 111.48177083 -12.9453125 110.47265625 C-15.94390011 109.49791955 -18.82770685 108.98555094 -21.9375 108.5 C-21.93416908 107.61915741 -21.93416908 107.61915741 -21.93077087 106.72052002 C-21.90848079 100.55505996 -21.89349543 94.38961153 -21.88256836 88.22412109 C-21.87756958 85.92952 -21.87076836 83.63492205 -21.86206055 81.34033203 C-21.8497983 78.0237551 -21.84422698 74.70722063 -21.83984375 71.390625 C-21.83468246 70.38074524 -21.82952118 69.37086548 -21.82420349 68.3303833 C-21.15587918 55.63670737 -21.15587918 55.63670737 -25.3359375 44.3515625 C-26.80933594 43.24941406 -26.80933594 43.24941406 -28.3125 42.125 C-33.69093384 37.99538457 -36.48925079 34.86186906 -37.40625 27.984375 C-37.47486405 19.78499563 -37.09960751 13.13876807 -31.9375 6.5 C-23.28399822 -1.85690998 -11.43975932 -4.44988917 0 0 Z M-19.9375 18.5 C-20.2675 18.83 -20.5975 19.16 -20.9375 19.5 C-21.43875283 22.83142278 -21.43875283 22.83142278 -20.9375 26.5 C-17.95643932 30.1086524 -15.79620127 32.25217316 -11.125 32.875 C-6.9136735 32.37954982 -5.63204981 30.65647263 -2.9375 27.5 C-2.6075 27.17 -2.2775 26.84 -1.9375 26.5 C-1.53711446 22.33599038 -1.49565672 20.17749304 -3.8125 16.625 C-6.5248239 13.9126761 -7.39991153 13.56085907 -11.25 13.125 C-15.84348187 13.59213375 -17.05197985 15.02040218 -19.9375 18.5 Z " fill="#CEAB39" transform="translate(717.9375,91.5)"/>
<path d="M0 0 C2.71310559 4.06965839 2.34377823 7.21857038 2.3125 12 C2.30621582 13.28233521 2.30621582 13.28233521 2.29980469 14.59057617 C2.14337122 23.3749809 1.12103472 32.25116684 -5 39 C-12.39279868 44.86549521 -21.6812744 47.81601474 -30.390625 51.16796875 C-34.0442171 52.5806614 -37.49785442 54.2434891 -41 56 C-41.66 56 -42.32 56 -43 56 C-40.66150357 63.51659568 -35.389858 68.44631653 -30 74 C-29.13632812 74.90492188 -28.27265625 75.80984375 -27.3828125 76.7421875 C-24.27723433 79.6848501 -22.24266313 80.43431158 -18 81 C-13.71672629 80.23176478 -10.14002061 78.69513452 -6.4375 76.4375 C-4.12592014 72.51786458 -4.6950485 68.43873853 -5 64 C-10.80160774 65.48701402 -15.57763179 66.72504406 -20 71 C-21.32 70.34 -22.64 69.68 -24 69 C-24.5 66.4375 -24.5 66.4375 -24 63 C-20.79157125 59.31030694 -16.68236297 55.58324503 -12 54 C-5.54956761 54.05420531 -1.92264894 56.74210815 2.9375 60.5625 C3.62134766 61.08263672 4.30519531 61.60277344 5.00976562 62.13867188 C6.68247516 63.41367425 8.34256895 64.70519865 10 66 C9.2028781 74.83385775 4.74543256 80.44183907 -1.578125 86.44921875 C-9.38508892 92.95891771 -9.38508892 92.95891771 -14 93 C-16.5270064 91.68680001 -18.64109333 90.39020502 -20.9375 88.75 C-21.58702637 88.3055957 -22.23655273 87.86119141 -22.90576172 87.40332031 C-26.35863218 85.00458942 -29.67535346 82.4883732 -32.91796875 79.8125 C-33.54131104 79.30106445 -34.16465332 78.78962891 -34.80688477 78.26269531 C-36.00075486 77.26938 -37.18036565 76.25862093 -38.34350586 75.22949219 C-40.12712519 73.66526423 -40.12712519 73.66526423 -43 72 C-45.87539917 72.53910931 -45.87539917 72.53910931 -48 74 C-47.44210432 81.01524148 -46.81552077 88.00982196 -46 95 C-47.79206547 94.85915204 -49.58364917 94.71216299 -51.375 94.5625 C-52.87160156 94.44068359 -52.87160156 94.44068359 -54.3984375 94.31640625 C-57 94 -57 94 -59 93 C-58.73445312 91.94683594 -58.46890625 90.89367187 -58.1953125 89.80859375 C-52.88562534 68.30875411 -51.87841913 46.7306534 -50.9375 24.6875 C-50.84590056 22.57876746 -50.75410525 20.47004341 -50.66210938 18.36132812 C-50.43914825 13.24098059 -50.21883676 8.1205254 -50 3 C-44.96924258 2.56572324 -39.93792868 2.13882042 -34.90600586 1.71826172 C-33.2001119 1.57469877 -31.4943759 1.42924418 -29.78881836 1.28173828 C-5.54217244 -0.81180471 -5.54217244 -0.81180471 0 0 Z M-15.3125 9.14453125 C-16.6428125 9.47517578 -16.6428125 9.47517578 -18 9.8125 C-22.12514177 10.72737208 -25.71714491 11.0619419 -29.9375 10.875 C-33.95851751 10.80267701 -33.95851751 10.80267701 -37.5625 12.5 C-42.80786994 21.6223825 -42.19932109 33.79033081 -42 44 C-39.01133642 44.99622119 -36.85322208 45.33626063 -33.87890625 44.1640625 C-31.51027632 42.87506805 -29.2610529 41.46891532 -27 40 C-26.30390625 39.61070312 -25.6078125 39.22140625 -24.890625 38.8203125 C-16.90257714 33.83552295 -13.0327792 24.04751823 -10.375 15.3125 C-9.65370312 12.11408957 -9.65370312 12.11408957 -11.1640625 10.2421875 C-12.95111037 8.76055309 -12.95111037 8.76055309 -15.3125 9.14453125 Z " fill="#D0AB39" transform="translate(711,776)"/>
<path d="M0 0 C5.08349589 4.3902919 9.59810119 9.67135213 10.23828125 16.56640625 C10.50531171 27.3460044 8.1692523 34.06601758 0.8125 42 C-0.06792969 42.9075 -0.94835937 43.815 -1.85546875 44.75 C-5.05461466 48.10648095 -5.13532659 49.91975344 -5.20532227 54.45947266 C-5.22526749 55.60050446 -5.24521271 56.74153625 -5.26576233 57.91714478 C-5.29083107 59.77186905 -5.29083107 59.77186905 -5.31640625 61.6640625 C-5.33718735 62.92640717 -5.35796844 64.18875183 -5.37937927 65.48934937 C-5.43377926 68.84632045 -5.48400236 72.20330189 -5.53222656 75.56036377 C-5.58245042 78.98561065 -5.63813186 82.41076829 -5.69335938 85.8359375 C-5.80061859 92.55722061 -5.9023744 99.27857044 -6 106 C-11.30094216 107.80304155 -16.60308488 109.50723624 -22 111 C-22.83304365 96.25257206 -23.27644704 81.51733795 -23.5625 66.75 C-23.60585089 64.6249945 -23.64946936 62.49999444 -23.69335938 60.375 C-23.79864301 55.25005718 -23.90035682 50.12505546 -24 45 C-24.9485083 44.54206055 -25.8970166 44.08412109 -26.87426758 43.61230469 C-32.46274955 40.72967289 -37.36801905 35.14202633 -39.5625 29.17578125 C-41.04341231 21.81088698 -41.3922181 13.34855487 -37.40234375 6.74609375 C-32.65269415 0.83218464 -27.587313 -2.85317175 -20.25 -4.6875 C-12.70532486 -5.41294953 -6.38175189 -4.17053084 0 0 Z M-25 17 C-26.3761698 20.35441389 -26.11199959 21.67058945 -24.9375 25.125 C-22.57529133 28.63021286 -21.03611915 29.75811719 -17 31 C-13.18385533 30.41787624 -10.87784244 29.87784244 -8.125 27.125 C-6.5372568 24.21342314 -6.5372568 24.21342314 -6 21 C-7.83038827 15.63075415 -7.83038827 15.63075415 -12 12 C-18.28881175 11.28997287 -21.04705658 11.60962262 -25 17 Z " fill="#CFAB39" transform="translate(403,94)"/>
<path d="M0 0 C0 18.48 0 36.96 0 56 C7.115625 55.814375 7.115625 55.814375 14.375 55.625 C15.8707959 55.59100098 17.3665918 55.55700195 18.90771484 55.52197266 C20.08027832 55.4863623 21.2528418 55.45075195 22.4609375 55.4140625 C23.66540527 55.3826416 24.86987305 55.3512207 26.11083984 55.31884766 C29.1260018 55.29084774 29.1260018 55.29084774 31 53 C31.18615381 51.23360714 31.36447234 49.46554611 31.47973633 47.69311523 C32.09961897 38.86786162 32.09961897 38.86786162 34.73046875 36.33203125 C36.8125 35.4375 36.8125 35.4375 38.97265625 34.7421875 C42.45041439 33.46901978 43.83826533 30.94236107 46 28 C47.32859733 26.32955554 48.66118583 24.66226718 50 23 C50.48283958 32.45560836 49.81675348 40.26425066 47.0703125 49.40625 C46.05471335 52.81629095 45.29717888 56.20833107 44.5625 59.6875 C43.68706548 63.17526837 43.2771677 64.69907507 40.8125 67.375 C39.884375 67.91125 38.95625 68.4475 38 69 C36.59690291 70.07390892 35.20150236 71.15792205 33.8125 72.25 C30.25247525 75 30.25247525 75 28 75 C27.62875 75.78697266 27.62875 75.78697266 27.25 76.58984375 C25.64994027 79.67495893 23.83199298 82.61206203 22 85.5625 C21.46632813 86.4277832 21.46632813 86.4277832 20.921875 87.31054688 C19.31955888 89.90235298 17.69043344 92.46434984 16 95 C8.30844491 92.59638903 2.85682358 87.1694786 -2 81 C-2.804375 80.21625 -3.60875 79.4325 -4.4375 78.625 C-16.32665598 66.44586461 -18.84826393 53.83245796 -18.65185547 37.36889648 C-18.6248604 34.67356119 -18.6518192 31.98232468 -18.68359375 29.28710938 C-18.68029221 27.54947011 -18.67389128 25.81183336 -18.6640625 24.07421875 C-18.67418365 23.28133957 -18.68430481 22.48846039 -18.69473267 21.67155457 C-18.54986993 14.70208334 -15.77885178 9.98868345 -11.0859375 4.94140625 C-10.52132813 4.48636719 -9.95671875 4.03132813 -9.375 3.5625 C-8.52035156 2.85287109 -8.52035156 2.85287109 -7.6484375 2.12890625 C-5.06996129 0.36307776 -3.10526447 0 0 0 Z " fill="#CFAB39" transform="translate(385,392)"/>
<path d="M0 0 C2.46277079 2.24397091 2.96055646 3.42149476 3.1875 6.75 C3.0946875 7.86375 3.0946875 7.86375 3 9 C2.16597656 9.18175781 1.33195312 9.36351562 0.47265625 9.55078125 C-6.17400126 11.03542983 -12.58372281 12.71624032 -19 15 C-19 13.68 -19 12.36 -19 11 C-24.47247831 13.41432867 -27.37698577 17.80409283 -30 23 C-30.70459503 25.77262721 -30.8952636 28.11974891 -31 31 C-27.53081525 32.4359586 -24.05722168 33.64505156 -20.46484375 34.734375 C3.59678489 42.14164008 3.59678489 42.14164008 11 47 C11.598125 47.38800781 12.19625 47.77601563 12.8125 48.17578125 C15.42773968 50.4712226 15.98961802 52.92056355 16.42578125 56.2578125 C16.86847844 68.57744287 14.03295408 81.30690208 6 91 C-0.18896361 96.10567299 -6.32077094 95.78354903 -13.94580078 95.22753906 C-25.00166075 94.00290613 -33.95208977 89.33440874 -40.96142578 80.73046875 C-42.81264866 77.64596763 -42.76223754 74.41766972 -42.6875 70.9375 C-42.71521484 70.24333984 -42.74292969 69.54917969 -42.77148438 68.83398438 C-42.75791867 65.9770478 -42.55959871 63.6886547 -40.72119141 61.42626953 C-36.72782405 57.98200564 -33.48023026 56.86955267 -28.33203125 56.90234375 C-27.43935547 56.90556641 -26.54667969 56.90878906 -25.62695312 56.91210938 C-24.23379883 56.92467773 -24.23379883 56.92467773 -22.8125 56.9375 C-21.87212891 56.94201172 -20.93175781 56.94652344 -19.96289062 56.95117188 C-17.64186288 56.96295374 -15.32096356 56.97940442 -13 57 C-13.60835693 57.69379761 -13.60835693 57.69379761 -14.22900391 58.40161133 C-14.76444824 59.0180249 -15.29989258 59.63443848 -15.8515625 60.26953125 C-16.38088379 60.87643799 -16.91020508 61.48334473 -17.45556641 62.10864258 C-20.78198287 66.18226704 -23 69.59731599 -23 75 C-16.18693345 78.04509459 -16.18693345 78.04509459 -9 77 C-4.54169991 73.55494993 -3.04105211 70.48918387 -2 65 C-1.60574614 59.57900941 -2.54805371 55.17255866 -4 50 C-4.64324219 49.84144531 -5.28648438 49.68289063 -5.94921875 49.51953125 C-19.60779403 45.99285204 -33.94184223 41.43749007 -42.9921875 29.87890625 C-44.95017455 26.22855054 -45.00628335 22.97036967 -44 19 C-39.59649898 9.96210277 -30.92212537 5.36754712 -21.8125 2.125 C-14.78354067 -0.18796721 -7.34639312 -1.47130801 0 0 Z " fill="#D0AB39" transform="translate(1077,779)"/>
<path d="M0 0 C8.25 0 16.5 0 25 0 C25 32.01 25 64.02 25 97 C16.75 97 8.5 97 0 97 C0 64.99 0 32.98 0 0 Z " fill="#71588F" transform="translate(491,780)"/>
<path d="M0 0 C6.5675792 3.06570111 11.06071183 8.01207619 14.62109375 14.2734375 C17.01014771 21.09930596 17.70546814 27.92437951 14.4921875 34.62890625 C11.92896415 38.68676119 9.14093606 41.70042242 5.46875 44.765625 C1.12766281 49.05424136 0.6716104 52.5431106 0.5625 58.5078125 C0.58183594 59.58546875 0.60117187 60.663125 0.62109375 61.7734375 C0.60949219 62.88203125 0.59789062 63.990625 0.5859375 65.1328125 C0.56254555 67.84627865 0.58696353 70.56008518 0.62109375 73.2734375 C-5.64890625 73.2734375 -11.91890625 73.2734375 -18.37890625 73.2734375 C-18.37890625 64.6934375 -18.37890625 56.1134375 -18.37890625 47.2734375 C-20.68890625 46.6134375 -22.99890625 45.9534375 -25.37890625 45.2734375 C-27.3046875 43.65234375 -27.3046875 43.65234375 -28.69140625 41.8359375 C-29.16191406 41.23910156 -29.63242187 40.64226562 -30.1171875 40.02734375 C-35.00924924 33.22692355 -34.96408233 26.46590262 -34.37890625 18.2734375 C-33.222084 12.71704716 -30.79244154 8.86584995 -26.37890625 5.2734375 C-23.44140625 3.6484375 -23.44140625 3.6484375 -20.37890625 2.2734375 C-19.07953125 1.438125 -19.07953125 1.438125 -17.75390625 0.5859375 C-12.06572076 -1.62613463 -5.86687549 -1.7918536 0 0 Z M-17.37890625 18.2734375 C-19.44810555 20.90696388 -19.37821347 22.3115406 -19.31640625 25.7109375 C-18.17877449 30.0339382 -17.00306273 31.67349916 -13.37890625 34.2734375 C-9.07615716 34.96495075 -7.16945313 34.78901155 -3.50390625 32.3984375 C-0.77845734 29.67298859 -0.43220756 28.83843141 -0.06640625 24.9609375 C-0.42766567 20.69807639 -1.39882679 19.25351696 -4.37890625 16.2734375 C-9.14254906 13.8916161 -13.34991748 15.13977957 -17.37890625 18.2734375 Z " fill="#CFAB39" transform="translate(556.37890625,52.7265625)"/>
<path d="M0 0 C1.12148438 0.01353516 1.12148438 0.01353516 2.265625 0.02734375 C4.05223306 0.05024898 5.83866921 0.08607269 7.625 0.125 C8.615 2.435 9.605 4.745 10.625 7.125 C2.53468468 13.41526961 -5.25486313 13.9745449 -15.22485352 14.19091797 C-21.67583025 14.45581395 -21.67583025 14.45581395 -27.0234375 17.76953125 C-30.60138125 22.12871647 -30.31843081 26.63400288 -30.05078125 32.0234375 C-29.26425948 39.64044316 -27.02015407 47.04242379 -24.86645508 54.36791992 C-22.82336923 61.47274706 -21.90674796 67.73237795 -22.375 75.125 C-28.23273121 77.34286304 -33.07013527 78.78866997 -39.375 78.125 C-41.80584354 74.4787347 -41.58301582 71.89394236 -41.46484375 67.6953125 C-41.44208663 66.17090759 -41.41997633 64.64649292 -41.3984375 63.12207031 C-41.38393555 62.32530884 -41.36943359 61.52854736 -41.35449219 60.7076416 C-41.10735815 46.24383452 -41.56647894 32.36821393 -44.375 18.125 C-55.30343466 21.61912537 -65.91951822 25.38473334 -76.375 30.125 C-77.2144882 28.02328133 -78.04639656 25.91853375 -78.875 23.8125 C-79.57109375 22.05486328 -79.57109375 22.05486328 -80.28125 20.26171875 C-81.375 17.125 -81.375 17.125 -81.375 14.125 C-74.05561997 12.58969473 -66.73522925 11.05928925 -59.41358757 9.53480721 C-56.01237671 8.82646781 -52.6115093 8.11656482 -49.21142578 7.40283203 C-45.28519776 6.57872981 -41.35748713 5.76189164 -37.4296875 4.9453125 C-36.2332663 4.69314972 -35.03684509 4.44098694 -33.8041687 4.18118286 C-22.63274429 1.8692016 -11.44559647 -0.27656646 0 0 Z " fill="#D0AB39" transform="translate(1005.375,790.875)"/>
<path d="M0 0 C-0.3125 1.875 -0.3125 1.875 -1 4 C-6.30912565 7.5394171 -13.12192196 6.49526493 -19.24609375 5.44140625 C-20.79490234 5.13009766 -20.79490234 5.13009766 -22.375 4.8125 C-25.95912464 4.17698377 -27.84616838 3.9636398 -31.4375 4.8125 C-36.16481921 8.8480164 -38.93587613 14.11214211 -39.9375 20.25 C-40.07136701 24.96595889 -40.07136701 24.96595889 -38 29 C-31.46552236 31.46877227 -25.03204399 31.30507744 -18.11914062 31.21484375 C-15.61861866 31.26368941 -13.42244889 31.37402156 -11 32 C-8.46397773 34.72727584 -7.2899916 36.59673556 -6.5390625 40.23046875 C-6.70308567 43.96572363 -6.88662454 45.82993681 -9 49 C-10.89583333 48.85416667 -12.79166667 48.70833333 -14.6875 48.5625 C-15.863125 48.47226562 -17.03875 48.38203125 -18.25 48.2890625 C-20.72929024 48.09795054 -23.20846004 47.90526902 -25.6875 47.7109375 C-26.8425 47.62070312 -27.9975 47.53046875 -29.1875 47.4375 C-30.78658203 47.31181641 -30.78658203 47.31181641 -32.41796875 47.18359375 C-33.94268855 47.07517948 -35.4714307 47 -37 47 C-36.71953571 50.35520059 -36.42359578 53.70886828 -36.125 57.0625 C-36.04636719 58.00544922 -35.96773437 58.94839844 -35.88671875 59.91992188 C-35.40889298 65.19438331 -34.51281994 69.90683952 -33 75 C-32.8046875 77.87109375 -32.8046875 77.87109375 -32.875 80.4375 C-32.89304687 81.30246094 -32.91109375 82.16742187 -32.9296875 83.05859375 C-32.95289063 83.69925781 -32.97609375 84.33992187 -33 85 C-36.18091126 86.87592203 -38.51343291 87.24719681 -42.1875 87.1875 C-43.06792969 87.18105469 -43.94835937 87.17460938 -44.85546875 87.16796875 C-47 87 -47 87 -48 86 C-49.23280948 75.13838441 -49.30163194 64.12655638 -49.60546875 53.2109375 C-49.82581891 45.87099768 -50.22151631 38.57220445 -50.77294922 31.25 C-51.09326622 26.66498932 -51.25762154 22.09515639 -51.3125 17.5 C-51.34150391 16.65953125 -51.37050781 15.8190625 -51.40039062 14.953125 C-51.46810745 8.32729383 -49.69979148 4.86678889 -45.10546875 -0.01171875 C-30.58358954 -12.69987798 -15.67319198 -8.23642232 0 0 Z " fill="#D0AB39" transform="translate(908,784)"/>
<path d="M0 0 C22.44 0 44.88 0 68 0 C66 24 66 24 65 26 C45.11708612 29.57178094 22.97608276 28.9512625 3 26 C0.84563571 23.84563571 1.25513828 19.3631527 0.9375 16.375 C0.84662109 15.57964844 0.75574219 14.78429687 0.66210938 13.96484375 C0.14449607 9.22459558 0 4.82451036 0 0 Z " fill="#CFAB39" transform="translate(513,649)"/>
<path d="M0 0 C3.94929517 0.38218986 6.11429807 1.64828091 9.45703125 3.75390625 C16.55422696 8.1729149 21.91959142 9.24079132 30.26953125 8.31640625 C34.89919008 6.66477865 38.8964156 4.24246099 42.95703125 1.50390625 C46.28449257 -0.2047901 48.59200606 -0.21850651 52.26953125 0.31640625 C54.70703125 2.81640625 54.70703125 2.81640625 56.26953125 5.31640625 C54.29572892 11.33081962 50.50526261 14.02677099 45.26953125 17.31640625 C42.32477864 18.62941388 39.40363199 19.5729152 36.26953125 20.31640625 C35.52058594 20.49429687 34.77164063 20.6721875 34 20.85546875 C20.93984501 23.06018733 11.4285412 21.34615387 0.26953125 14.31640625 C-0.8390625 13.6409375 -1.94765625 12.96546875 -3.08984375 12.26953125 C-5.73046875 10.31640625 -5.73046875 10.31640625 -6.29296875 7.31640625 C-5.47327253 2.94469306 -4.69160247 0.54366209 0 0 Z " fill="#6F578E" transform="translate(523.73046875,361.68359375)"/>
<path d="M0 0 C4.97387583 2.62569411 8.23317796 5.94953387 10.0078125 11.2734375 C10.53219822 16.26799658 10.55784346 20.15300406 8.3203125 24.7109375 C3.85313787 29.66104993 -0.20549112 31.08450893 -6.6796875 31.5234375 C-11.40480538 31.40819072 -15.97490132 30.92349603 -19.9921875 28.2734375 C-23.11957777 22.74215769 -22.34812467 15.26133523 -20.9921875 9.2734375 C-19.57476216 5.35899342 -17.72920396 2.80477495 -14.3046875 0.3359375 C-9.44488286 -1.22286776 -4.88577907 -1.78187237 0 0 Z M-8.8046875 9.2109375 C-9.8875 10.231875 -9.8875 10.231875 -10.9921875 11.2734375 C-9.84045395 13.74143797 -8.94435185 15.32127315 -6.9921875 17.2734375 C-4.38938182 16.95302353 -4.38938182 16.95302353 -1.9921875 16.2734375 C-1.6621875 13.6334375 -1.3321875 10.9934375 -0.9921875 8.2734375 C-4.63177021 7.02558057 -5.54078742 6.962473 -8.8046875 9.2109375 Z " fill="#6F568D" transform="translate(517.9921875,274.7265625)"/>
<path d="M0 0 C3.17104561 3.80525473 4.14011556 8.09595556 4 13 C2.35134693 18.72179595 -0.07927491 21.6879735 -5 25 C-10.53443193 27.11314674 -15.79608291 27.91192161 -21.56640625 26.26953125 C-25.35219986 24.29459879 -25.89899734 21.60404816 -27.2734375 17.7265625 C-29.11551611 10.8138159 -28.48461426 5.22252546 -25 -1 C-18.05333115 -7.94666885 -7.12501446 -5.13001041 0 0 Z M-16 2 C-17.85776765 5.13498292 -18.20140476 7.37471432 -18 11 C-15.84377121 12.30913891 -14.42047902 13 -11.875 13 C-9.64740034 12.06847068 -9.64740034 12.06847068 -8.75 8.9375 C-8.37875 7.4834375 -8.37875 7.4834375 -8 6 C-9.134375 5.34 -10.26875 4.68 -11.4375 4 C-12.07558594 3.62875 -12.71367188 3.2575 -13.37109375 2.875 C-14.83865039 1.92113038 -14.83865039 1.92113038 -16 2 Z " fill="#6F568D" transform="translate(598,279)"/>
<path d="M0 0 C3.98886486 1.25163795 7.65718567 2.7158521 11.375 4.625 C12.68597656 5.29402344 12.68597656 5.29402344 14.0234375 5.9765625 C14.67570312 6.31429688 15.32796875 6.65203125 16 7 C14.33333333 10.33333333 12.66666667 13.66666667 11 17 C9.35 17 7.7 17 6 17 C5.67 20.96 5.34 24.92 5 29 C-4.405 30.98 -4.405 30.98 -14 33 C-13.896875 30.504375 -13.79375 28.00875 -13.6875 25.4375 C-13.66260498 24.66591553 -13.63770996 23.89433105 -13.61206055 23.09936523 C-13.1995122 15.22280354 -10.57052132 10.02140333 -4.8125 4.5625 C-3.91144531 3.69753906 -3.01039063 2.83257812 -2.08203125 1.94140625 C-1.39496094 1.30074219 -0.70789063 0.66007812 0 0 Z " fill="#CEAB39" transform="translate(381,325)"/>
<path d="M0 0 C8.25 0 16.5 0 25 0 C25 5.94 25 11.88 25 18 C16.75 18 8.5 18 0 18 C0 12.06 0 6.12 0 0 Z " fill="#71588F" transform="translate(491,744)"/>
<path d="M0 0 C0 0.66 0 1.32 0 2 C-3.62800381 4.57136421 -7.48780064 6.78189874 -11.31591797 9.04174805 C-13.23653963 10.17952607 -15.14364872 11.3378376 -17.05078125 12.49804688 C-18.26746 13.22264724 -19.48488501 13.94599632 -20.703125 14.66796875 C-21.81333008 15.33078857 -22.92353516 15.9936084 -24.06738281 16.67651367 C-27 18 -27 18 -29.23242188 17.87402344 C-32.28127502 16.36644136 -34.16726605 13.66894466 -36.25 11.0625 C-36.70890625 10.51142578 -37.1678125 9.96035156 -37.640625 9.39257812 C-41 5.27834356 -41 5.27834356 -41 3 C-37.09055899 2.56441629 -33.18025783 2.13762611 -29.26904297 1.71826172 C-27.29997229 1.50540208 -25.33161353 1.28598905 -23.36328125 1.06640625 C-15.53886461 0.23233138 -7.86803114 -0.19863192 0 0 Z " fill="#CBA837" transform="translate(663,642)"/>
<path d="M0 0 C5.66049571 0.54630807 11.32045664 1.09776649 16.97998047 1.65405273 C18.90627366 1.84265337 20.83270648 2.02983348 22.75927734 2.21557617 C25.52479179 2.48244903 28.28976764 2.75438818 31.0546875 3.02734375 C32.3516304 3.1508445 32.3516304 3.1508445 33.67477417 3.27684021 C39.77225659 3.88612829 39.77225659 3.88612829 42 5 C40.43632643 8.52238047 38.30504111 11.27123994 35.875 14.25 C35.15054688 15.14203125 34.42609375 16.0340625 33.6796875 16.953125 C33.12539063 17.62859375 32.57109375 18.3040625 32 19 C27.7148652 17.70360008 24.08234605 16.05768261 20.234375 13.77734375 C18.65269531 12.84631836 18.65269531 12.84631836 17.0390625 11.89648438 C15.95367187 11.25001953 14.86828125 10.60355469 13.75 9.9375 C11.57833596 8.65459074 9.40647131 7.37202099 7.234375 6.08984375 C6.27756836 5.52128662 5.32076172 4.95272949 4.33496094 4.36694336 C2.91417071 3.53517794 1.47254299 2.7362715 0 2 C0 1.34 0 0.68 0 0 Z " fill="#CDAA38" transform="translate(429,641)"/>
<path d="M0 0 C1.65 0 3.3 0 5 0 C5.99 3.63 6.98 7.26 8 11 C8.99 7.37 9.98 3.74 11 0 C12.65 0 14.3 0 16 0 C16.99 3.63 17.98 7.26 19 11 C19.99 7.37 20.98 3.74 22 0 C23.65 0 25.3 0 27 0 C26.35482025 2.91681264 25.7088818 5.83345373 25.0625 8.75 C24.88009766 9.575 24.69769531 10.4 24.50976562 11.25 C24.33251953 12.04921875 24.15527344 12.8484375 23.97265625 13.671875 C23.81031494 14.4050293 23.64797363 15.13818359 23.48071289 15.89355469 C23.01446454 17.93661753 22.51579351 19.96893762 22 22 C20.35 22 18.7 22 17 22 C15.515 17.05 15.515 17.05 14 12 C12.33094759 15.33810482 11.1258614 18.46157845 10 22 C8.35 22 6.7 22 5 22 C4.16285091 18.70929159 3.33093104 15.41728353 2.5 12.125 C2.14228516 10.71927734 2.14228516 10.71927734 1.77734375 9.28515625 C1.55175781 8.38925781 1.32617188 7.49335937 1.09375 6.5703125 C0.88427734 5.74289551 0.67480469 4.91547852 0.45898438 4.06298828 C0 2 0 2 0 0 Z " fill="#71578E" transform="translate(821,890)"/>
<path d="M0 0 C1.98 0 3.96 0 6 0 C7.98 3.96 9.96 7.92 12 12 C12.33 8.04 12.66 4.08 13 0 C14.65 0 16.3 0 18 0 C18 7.26 18 14.52 18 22 C16.02 22 14.04 22 12 22 C9.03 16.06 9.03 16.06 6 10 C5.67 13.96 5.34 17.92 5 22 C3.35 22 1.7 22 0 22 C0 14.74 0 7.48 0 0 Z " fill="#71578E" transform="translate(713,890)"/>
<path d="M0 0 C1.98 0 3.96 0 6 0 C7.98 3.96 9.96 7.92 12 12 C12.33 8.04 12.66 4.08 13 0 C14.65 0 16.3 0 18 0 C18 7.26 18 14.52 18 22 C16.02 22 14.04 22 12 22 C9.03 16.06 9.03 16.06 6 10 C5.67 13.96 5.34 17.92 5 22 C3.35 22 1.7 22 0 22 C0 14.74 0 7.48 0 0 Z " fill="#71578E" transform="translate(493,890)"/>
<path d="M0 0 C2.58264795 1.40273232 3.96698304 2.8064817 6 5 C6 5.33 6 5.66 6 6 C-0.4556962 6.12658228 -0.4556962 6.12658228 -3.6875 5.375 C-6.00797338 4.83319859 -6.00797338 4.83319859 -8.25 5.625 C-10.20347133 6.91256685 -10.20347133 6.91256685 -10.875 9.375 C-11.01875429 12.39384006 -10.92476367 13.65680945 -9 16 C-4.9134809 17.1640191 -4.9134809 17.1640191 -1 16 C-2.32 15.67 -3.64 15.34 -5 15 C-5 13.68 -5 12.36 -5 11 C-1.04 11 2.92 11 7 11 C6.8123405 15.03467916 6.20790966 16.75477323 3.5625 19.875 C0.03898195 22.49004472 -3.29113863 22.70747898 -7.58984375 22.5 C-11.5271311 21.68318836 -13.28634241 19.92240049 -16 17 C-17.61429923 13.77140153 -17.59570657 10.49006347 -17 7 C-12.94200582 -0.07120627 -7.65479511 -1.08852591 0 0 Z " fill="#71578E" transform="translate(537,890)"/>
<path d="M0 0 C3.07469523 1.70251719 5.40613254 3.81226508 7 7 C7.68128376 13.81283762 7.68128376 13.81283762 5.953125 16.82421875 C3.61960998 19.65875317 1.75467707 21.75434521 -1.953125 22.2734375 C-6.24672199 22.46329043 -9.09582964 22.4342668 -12.5 19.625 C-15.87239412 16.08398617 -16.39526955 14.03199578 -16.359375 9.10546875 C-15.72418186 5.38406547 -13.66020984 3.59687151 -11 1 C-7.51556578 -0.74221711 -3.80112955 -0.58675154 0 0 Z M-8.25 5.125 C-10.45666636 7.48928539 -10.92307328 8.76907772 -11 12 C-10.00719496 14.82137181 -10.00719496 14.82137181 -8 17 C-5.60648505 18.16210219 -5.60648505 18.16210219 -3 18 C-0.1674271 16.58371355 0.77371683 15.5732507 1.9375 12.625 C2.02024187 9.14984151 1.21364514 7.65637417 -1 5 C-4.05167745 3.74802976 -5.28848147 3.64424073 -8.25 5.125 Z " fill="#71578E" transform="translate(1034,890)"/>
<path d="M0 0 C11.46847432 -0.36995078 11.46847432 -0.36995078 13.86328125 1.296875 C15.77787325 4.16547332 15.35095255 6.66595077 15 10 C13.5 12.4375 13.5 12.4375 12 14 C13.32 16.64 14.64 19.28 16 22 C14.02 22 12.04 22 10 22 C8.68 19.36 7.36 16.72 6 14 C5.67 16.64 5.34 19.28 5 22 C3.35 22 1.7 22 0 22 C0 14.74 0 7.48 0 0 Z M5 4 C5 5.98 5 7.96 5 10 C6.32 9.67 7.64 9.34 9 9 C9 7.68 9 6.36 9 5 C7.68 4.67 6.36 4.34 5 4 Z " fill="#71578E" transform="translate(973,890)"/>
<path d="M0 0 C11.46847432 -0.36995078 11.46847432 -0.36995078 13.86328125 1.296875 C15.77787325 4.16547332 15.35095255 6.66595077 15 10 C13.5 12.4375 13.5 12.4375 12 14 C13.32 16.64 14.64 19.28 16 22 C14.02 22 12.04 22 10 22 C8.68 19.36 7.36 16.72 6 14 C5.67 16.64 5.34 19.28 5 22 C3.35 22 1.7 22 0 22 C0 14.74 0 7.48 0 0 Z M5 4 C5 5.98 5 7.96 5 10 C6.32 9.67 7.64 9.34 9 9 C9 7.68 9 6.36 9 5 C7.68 4.67 6.36 4.34 5 4 Z " fill="#71578E" transform="translate(654,890)"/>
<path d="M0 0 C11.46847432 -0.36995078 11.46847432 -0.36995078 13.86328125 1.296875 C15.77787325 4.16547332 15.35095255 6.66595077 15 10 C13.5 12.4375 13.5 12.4375 12 14 C13.32 16.64 14.64 19.28 16 22 C14.02 22 12.04 22 10 22 C8.68 19.36 7.36 16.72 6 14 C5.67 16.64 5.34 19.28 5 22 C3.35 22 1.7 22 0 22 C0 14.74 0 7.48 0 0 Z M5 4 C5 5.98 5 7.96 5 10 C6.32 9.67 7.64 9.34 9 9 C9 7.68 9 6.36 9 5 C7.68 4.67 6.36 4.34 5 4 Z " fill="#71578E" transform="translate(455,890)"/>
<path d="M0 0 C11.46847432 -0.36995078 11.46847432 -0.36995078 13.86328125 1.296875 C15.77787325 4.16547332 15.35095255 6.66595077 15 10 C13.5 12.4375 13.5 12.4375 12 14 C13.32 16.64 14.64 19.28 16 22 C14.02 22 12.04 22 10 22 C8.68 19.36 7.36 16.72 6 14 C5.67 16.64 5.34 19.28 5 22 C3.35 22 1.7 22 0 22 C0 14.74 0 7.48 0 0 Z M5 4 C5 5.98 5 7.96 5 10 C6.32 9.67 7.64 9.34 9 9 C9 7.68 9 6.36 9 5 C7.68 4.67 6.36 4.34 5 4 Z " fill="#71578E" transform="translate(383,890)"/>
<path d="M0 0 C2.58264795 1.40273232 3.96698304 2.8064817 6 5 C6 5.33 6 5.66 6 6 C2.66914012 6.06531098 -0.41799235 6.12181556 -3.6875 5.4375 C-6.16393458 4.96898535 -7.63315731 5.21105244 -10 6 C-10.68693763 9.02252556 -11.19215562 11.28902419 -10.375 14.3125 C-9.07395781 16.20160777 -9.07395781 16.20160777 -6.625 16.875 C-3.63850643 17.01721398 -2.60432331 16.3416211 0 15 C3.25 14.875 3.25 14.875 6 15 C4.59418135 18.39739506 3.11285464 20.05036999 0 22 C-4.06541625 22.80503292 -8.23956421 22.95254041 -11.94921875 20.9453125 C-15.69429205 17.88033726 -16.89735919 16.02640811 -17.375 11.25 C-17.35058775 7.89941932 -16.75601354 6.15105468 -14.625 3.5625 C-10.20084239 -0.75632052 -6.00119235 -0.85338056 0 0 Z " fill="#71578E" transform="translate(758,890)"/>
<path d="M0 0 C1.65 0 3.3 0 5 0 C5 2.64 5 5.28 5 8 C6.98 8 8.96 8 11 8 C11 5.36 11 2.72 11 0 C12.65 0 14.3 0 16 0 C16 7.26 16 14.52 16 22 C14.35 22 12.7 22 11 22 C11 18.7 11 15.4 11 12 C9.02 12 7.04 12 5 12 C5 15.3 5 18.6 5 22 C3.35 22 1.7 22 0 22 C0 14.74 0 7.48 0 0 Z " fill="#71588F" transform="translate(889,890)"/>
<path d="M0 0 C2.8125 -0.3125 2.8125 -0.3125 6 0 C7.875 2.5 7.875 2.5 9 5 C9.53625 4.175 10.0725 3.35 10.625 2.5 C13 0 13 0 16.25 -0.3125 C17.61125 -0.1578125 17.61125 -0.1578125 19 0 C18.62746094 0.59167969 18.25492188 1.18335938 17.87109375 1.79296875 C17.39800781 2.58316406 16.92492187 3.37335937 16.4375 4.1875 C15.96183594 4.96480469 15.48617187 5.74210938 14.99609375 6.54296875 C13.77739436 9.54909391 14.00560917 10.94722014 15 14 C16.30581356 16.0180755 17.63636792 18.02053408 19 20 C19 20.66 19 21.32 19 22 C16.1875 22.3125 16.1875 22.3125 13 22 C11.25 19.5625 11.25 19.5625 10 17 C9.34 16.67 8.68 16.34 8 16 C7.690625 16.804375 7.38125 17.60875 7.0625 18.4375 C6 21 6 21 5 22 C3.00041636 22.04080783 0.99954746 22.04254356 -1 22 C-0.50886719 21.2265625 -0.01773438 20.453125 0.48828125 19.65625 C2.34067206 16.45125691 3.88911885 13.53580069 5 10 C4.04263238 6.64136607 2.23594982 4.61083961 0 2 C0 1.34 0 0.68 0 0 Z " fill="#71578E" transform="translate(582,890)"/>
<path d="M0 0 C1.65 0 3.3 0 5 0 C5.33 1.98 5.66 3.96 6 6 C6.53625 5.01 7.0725 4.02 7.625 3 C8.40875 2.01 9.1925 1.02 10 0 C13.25 -0.375 13.25 -0.375 16 0 C15.0234375 1.69270833 14.046875 3.38541667 13.0703125 5.078125 C11.98600118 7.02513657 10.98235143 8.99989709 10 11 C10.5053125 11.71027344 11.010625 12.42054688 11.53125 13.15234375 C12.1809375 14.07144531 12.830625 14.99054687 13.5 15.9375 C14.1496875 16.85402344 14.799375 17.77054688 15.46875 18.71484375 C17 21 17 21 17 22 C14.3125 22.4375 14.3125 22.4375 11 22 C8.95224699 19.88875077 7.46519774 17.54140493 6 15 C5.67 17.31 5.34 19.62 5 22 C3.35 22 1.7 22 0 22 C0 14.74 0 7.48 0 0 Z " fill="#71578E" transform="translate(358,890)"/>
<path d="M0 0 C2.42260742 0.17602539 2.42260742 0.17602539 5 1 C6.30200195 2.82592773 6.30200195 2.82592773 7.23828125 5.18359375 C7.58310547 6.02857422 7.92792969 6.87355469 8.28320312 7.74414062 C8.62287109 8.63294922 8.96253906 9.52175781 9.3125 10.4375 C9.67150391 11.32244141 10.03050781 12.20738281 10.40039062 13.11914062 C13 19.62063988 13 19.62063988 13 22 C11.02 22 9.04 22 7 22 C6.67 20.02 6.34 18.04 6 16 C3.36 16 0.72 16 -2 16 C-2.33 17.98 -2.66 19.96 -3 22 C-4.98 22 -6.96 22 -9 22 C-2.97560976 2.97560976 -2.97560976 2.97560976 0 0 Z M1 8 C0.67 9.32 0.34 10.64 0 12 C1.32 11.67 2.64 11.34 4 11 C3.67 10.01 3.34 9.02 3 8 C2.34 8 1.68 8 1 8 Z " fill="#71578E" transform="translate(413,890)"/>
<path d="M0 0 C1.65 0 3.3 0 5 0 C5.33 5.28 5.66 10.56 6 16 C6.99 16 7.98 16 9 16 C9.33 10.72 9.66 5.44 10 0 C11.65 0 13.3 0 15 0 C15.10806144 2.91765891 15.18732877 5.83131125 15.25 8.75 C15.30027344 9.9875 15.30027344 9.9875 15.3515625 11.25 C15.45014269 17.36197167 15.45014269 17.36197167 13.203125 20.546875 C9.97123932 22.67854428 7.78237235 22.54033891 4 22 C1.796875 20.546875 1.796875 20.546875 0 18 C-0.48641711 14.90134285 -0.37702087 11.87666748 -0.25 8.75 C-0.23195313 7.90953125 -0.21390625 7.0690625 -0.1953125 6.203125 C-0.14830798 4.13492605 -0.07656724 2.06731559 0 0 Z " fill="#71578E" transform="translate(947,890)"/>
<path d="M0 0 C2 1.3125 2 1.3125 3 3 C3 3.99 3 4.98 3 6 C-0.04386724 6.08226668 -2.07175348 5.97608217 -5 5 C-5 5.66 -5 6.32 -5 7 C-3.69456713 7.77801468 -2.35451753 8.49848327 -1 9.1875 C1.20703125 10.50390625 1.20703125 10.50390625 3 12 C3.69026551 15.63958181 3.70273161 17.63845752 2 20.9375 C-1.229796 22.65332913 -4.43011858 22.55035672 -8 22 C-10 20.75 -10 20.75 -11 19 C-11 17.68 -11 16.36 -11 15 C-9.35 15 -7.7 15 -6 15 C-5.67 15.99 -5.34 16.98 -5 18 C-4.34 18 -3.68 18 -3 18 C-3.04768403 16.12119128 -3.04768403 16.12119128 -4 14 C-6.94236782 11.78831775 -6.94236782 11.78831775 -10 10 C-11 9 -11 9 -11.25 6.125 C-11 3 -11 3 -10 1.125 C-6.79238732 -0.67928213 -3.58709556 -0.56048368 0 0 Z " fill="#71578E" transform="translate(1060,890)"/>
<path d="M0 0 C2 1.3125 2 1.3125 3 3 C3 3.99 3 4.98 3 6 C-0.04386724 6.08226668 -2.07175348 5.97608217 -5 5 C-5 5.66 -5 6.32 -5 7 C-3.69456713 7.77801468 -2.35451753 8.49848327 -1 9.1875 C1.20703125 10.50390625 1.20703125 10.50390625 3 12 C3.69026551 15.63958181 3.70273161 17.63845752 2 20.9375 C-1.229796 22.65332913 -4.43011858 22.55035672 -8 22 C-10 20.75 -10 20.75 -11 19 C-11 17.68 -11 16.36 -11 15 C-9.35 15 -7.7 15 -6 15 C-5.67 15.99 -5.34 16.98 -5 18 C-4.34 18 -3.68 18 -3 18 C-3.04768403 16.12119128 -3.04768403 16.12119128 -4 14 C-6.94236782 11.78831775 -6.94236782 11.78831775 -10 10 C-11 9 -11 9 -11.25 6.125 C-11 3 -11 3 -10 1.125 C-6.79238732 -0.67928213 -3.58709556 -0.56048368 0 0 Z " fill="#71578E" transform="translate(803,890)"/>
<path d="M0 0 C11.46693984 -0.36990129 11.46693984 -0.36990129 13.86328125 1.29296875 C15.77103468 4.15787682 15.35598841 6.67744148 15 10 C13.9375 11.9375 13.9375 11.9375 12 13 C8.3125 13.1875 8.3125 13.1875 5 13 C5 15.97 5 18.94 5 22 C3.35 22 1.7 22 0 22 C0 14.74 0 7.48 0 0 Z M5 4 C5 5.65 5 7.3 5 9 C6.32 8.67 7.64 8.34 9 8 C9 7.01 9 6.02 9 5 C7.68 4.67 6.36 4.34 5 4 Z " fill="#71578E" transform="translate(996,890)"/>
<path d="M0 0 C11.46693984 -0.36990129 11.46693984 -0.36990129 13.86328125 1.29296875 C15.77103468 4.15787682 15.35598841 6.67744148 15 10 C13.9375 11.9375 13.9375 11.9375 12 13 C8.3125 13.1875 8.3125 13.1875 5 13 C5 15.97 5 18.94 5 22 C3.35 22 1.7 22 0 22 C0 14.74 0 7.48 0 0 Z M5 4 C5 5.65 5 7.3 5 9 C6.32 8.67 7.64 8.34 9 8 C9 7.01 9 6.02 9 5 C7.68 4.67 6.36 4.34 5 4 Z " fill="#71578E" transform="translate(924,890)"/>
<path d="M0 0 C11.46693984 -0.36990129 11.46693984 -0.36990129 13.86328125 1.29296875 C15.77103468 4.15787682 15.35598841 6.67744148 15 10 C13.9375 11.9375 13.9375 11.9375 12 13 C8.3125 13.1875 8.3125 13.1875 5 13 C5 15.97 5 18.94 5 22 C3.35 22 1.7 22 0 22 C0 14.74 0 7.48 0 0 Z M5 4 C5 5.65 5 7.3 5 9 C6.32 8.67 7.64 8.34 9 8 C9 7.01 9 6.02 9 5 C7.68 4.67 6.36 4.34 5 4 Z " fill="#71578E" transform="translate(609,890)"/>
<path d="M0 0 C4.29 0 8.58 0 13 0 C13 1.32 13 2.64 13 4 C10.36 4 7.72 4 5 4 C5 5.32 5 6.64 5 8 C7.31 8 9.62 8 12 8 C12 9.32 12 10.64 12 12 C9.69 12 7.38 12 5 12 C5 13.98 5 15.96 5 18 C7.64 18 10.28 18 13 18 C13 19.32 13 20.64 13 22 C8.71 22 4.42 22 0 22 C0 14.74 0 7.48 0 0 Z " fill="#71578E" transform="translate(1072,890)"/>
<path d="M0 0 C4.29 0 8.58 0 13 0 C13 1.32 13 2.64 13 4 C10.36 4 7.72 4 5 4 C5 5.32 5 6.64 5 8 C7.31 8 9.62 8 12 8 C12 9.32 12 10.64 12 12 C9.69 12 7.38 12 5 12 C5 13.98 5 15.96 5 18 C7.64 18 10.28 18 13 18 C13 19.32 13 20.64 13 22 C8.71 22 4.42 22 0 22 C0 14.74 0 7.48 0 0 Z " fill="#71578E" transform="translate(771,890)"/>
<path d="M0 0 C4.29 0 8.58 0 13 0 C13 1.32 13 2.64 13 4 C10.36 4 7.72 4 5 4 C5 5.32 5 6.64 5 8 C7.31 8 9.62 8 12 8 C12 9.32 12 10.64 12 12 C9.69 12 7.38 12 5 12 C5 13.98 5 15.96 5 18 C7.64 18 10.28 18 13 18 C13 19.32 13 20.64 13 22 C8.71 22 4.42 22 0 22 C0 14.74 0 7.48 0 0 Z " fill="#71578E" transform="translate(692,890)"/>
<path d="M0 0 C4.29 0 8.58 0 13 0 C13 1.32 13 2.64 13 4 C10.36 4 7.72 4 5 4 C5 5.32 5 6.64 5 8 C7.31 8 9.62 8 12 8 C12 9.32 12 10.64 12 12 C9.69 12 7.38 12 5 12 C5 13.98 5 15.96 5 18 C7.64 18 10.28 18 13 18 C13 19.32 13 20.64 13 22 C8.71 22 4.42 22 0 22 C0 14.74 0 7.48 0 0 Z " fill="#71578E" transform="translate(632,890)"/>
<path d="M0 0 C4.29 0 8.58 0 13 0 C13 1.32 13 2.64 13 4 C10.36 4 7.72 4 5 4 C5 5.32 5 6.64 5 8 C7.31 8 9.62 8 12 8 C12 9.32 12 10.64 12 12 C9.69 12 7.38 12 5 12 C5 13.98 5 15.96 5 18 C7.64 18 10.28 18 13 18 C13 19.32 13 20.64 13 22 C8.71 22 4.42 22 0 22 C0 14.74 0 7.48 0 0 Z " fill="#71578E" transform="translate(561,890)"/>
<path d="M0 0 C4.29 0 8.58 0 13 0 C13 1.32 13 2.64 13 4 C10.36 4 7.72 4 5 4 C5 5.32 5 6.64 5 8 C7.31 8 9.62 8 12 8 C12 9.32 12 10.64 12 12 C9.69 12 7.38 12 5 12 C5 15.3 5 18.6 5 22 C3.35 22 1.7 22 0 22 C0 14.74 0 7.48 0 0 Z " fill="#71578E" transform="translate(435,890)"/>
<path d="M0 0 C3 2.125 3 2.125 5 5 C5.3125 8.3125 5.3125 8.3125 5 11 C1.58442978 13.10188936 -1.02173 13.4871351 -5 13 C-7.8125 11.4375 -7.8125 11.4375 -10 9 C-10.8125 5.25 -10.8125 5.25 -11 2 C-7.31448812 -0.45700792 -4.27825949 -0.80737582 0 0 Z " fill="#70578E" transform="translate(541,321)"/>
<path d="M0 0 C0.99 0.66 1.98 1.32 3 2 C2.83383414 6.32031241 2.65309479 8.36323258 -0.5 11.4375 C-4.86238343 13.3849926 -8.30577643 13.37553789 -13 13 C-13.32470459 8.86001651 -13.4304413 6.66000999 -11.125 3.125 C-7.53296596 -0.46703404 -4.99764704 -0.26303405 0 0 Z " fill="#6F568D" transform="translate(570,321)"/>
<path d="M0 0 C4.29 0 8.58 0 13 0 C13 1.32 13 2.64 13 4 C11.68 4 10.36 4 9 4 C9 9.94 9 15.88 9 22 C7.35 22 5.7 22 4 22 C4 16.06 4 10.12 4 4 C2.68 4 1.36 4 0 4 C0 2.68 0 1.36 0 0 Z " fill="#71588F" transform="translate(869,890)"/>
<path d="M0 0 C1.65 0 3.3 0 5 0 C5 7.26 5 14.52 5 22 C3.35 22 1.7 22 0 22 C0 14.74 0 7.48 0 0 Z " fill="#71588F" transform="translate(855,890)"/>
<path d="M0 0 C1.65 0 3.3 0 5 0 C5 7.26 5 14.52 5 22 C3.35 22 1.7 22 0 22 C0 14.74 0 7.48 0 0 Z " fill="#71588F" transform="translate(676,890)"/>
<path d="M0 0 C1.65 0 3.3 0 5 0 C5 7.26 5 14.52 5 22 C3.35 22 1.7 22 0 22 C0 14.74 0 7.48 0 0 Z " fill="#71588F" transform="translate(478,890)"/>
<path d="M0 0 C2.88171784 2.64461447 5.02636487 5.66752631 7.25 8.875 C8.34054687 10.41800781 8.34054687 10.41800781 9.453125 11.9921875 C11 15 11 15 10.859375 17.7578125 C10 20 10 20 8 22 C7.68546875 21.154375 7.3709375 20.30875 7.046875 19.4375 C4.65617365 13.10070124 2.16934587 6.9865422 -1 1 C-0.67 0.67 -0.34 0.34 0 0 Z " fill="#C1A131" transform="translate(428,372)"/>
</svg>
